<?xml version="1.0" encoding="utf-8"?>
<!-- Generator: Adobe Illustrator 18.1.1, SVG Export Plug-In . SVG Version: 6.00 Build 0)  -->
<svg version="1.1" id="Layer_1" xmlns="http://www.w3.org/2000/svg" xmlns:xlink="http://www.w3.org/1999/xlink" x="0px" y="0px"
	 viewBox="0 0 656.4 91" enable-background="new 0 0 656.4 91" xml:space="preserve">
<path fill="#00A9F0" d="M45.4,90.9C20.3,90.9,0,70.5,0,45.4C0,20.3,20.3,0,45.4,0c25.1,0,45.4,20.3,45.4,45.4
	C90.9,70.5,70.5,90.9,45.4,90.9z"/>
<rect y="0" fill="#00A9F0" width="45.6" height="45.4"/>
<path opacity="0.75" fill="#FFFFFF" d="M45.4,13.4C45.4,13.4,45.4,13.4,45.4,13.4L45.4,13.4H13.6v32h0c0,17.7,14.3,31.8,31.8,31.8
	c17.6,0,31.8-14.3,31.8-31.9C77.3,27.7,63,13.4,45.4,13.4z"/>
<g>
	<path fill="#FFFFFF" d="M45.4,16.4c15.9,0,28.8,13,28.8,28.9c0,15.9-12.9,28.9-28.8,28.9c-15.5,0-28.2-12.3-28.8-27.7v-1.1v-29
		H45.4L45.4,16.4 M45.4,13.4C45.4,13.4,45.4,13.4,45.4,13.4H13.6v32h0c0,17.7,14.3,31.8,31.8,31.8c17.6,0,31.8-14.3,31.8-31.9
		C77.3,27.7,63,13.4,45.4,13.4L45.4,13.4z"/>
</g>
<path fill="#FFFFFF" d="M36.6,15.7L36.6,15.7L36.6,15.7h-22c0,0-1.8,31.3-0.6,34.1c3.7,8.5,12.4,15.3,22.6,15.3
	c13.5,0,24.5-11.2,24.5-24.7C61.1,26.9,50.1,15.7,36.6,15.7z"/>
<path fill="#00A9F0" d="M100.7,89.5V13.4h13.3v76.1H100.7z"/>
<path fill="#00A9F0" d="M123.9,51.5c0-23.8,17.9-39.3,39.9-39.3c14.8,0,24.5,7.1,30.7,15.9l-10.9,6.2c-4-5.7-11.2-10.1-19.7-10.1
	c-15.1,0-26.2,11.5-26.2,27.5c0,16,11.2,27.6,26.2,27.6c7.8,0,14.6-3.6,18-6.8V60.4h-22.7V48.7h36v28.5C187.6,85.5,177,91,163.8,91
	C141.8,91,123.9,75.3,123.9,51.5z"/>
<path fill="#00A9F0" d="M207.1,89.5V13.4h13.3v76.1H207.1z"/>
<path fill="#00A9F0" d="M253.7,89.5V25.2h-23V13.4h59.4v11.7h-23v64.3H253.7z"/>
<path fill="#00A9F0" d="M342.2,89.5l-5.6-14.6h-34.9l-5.6,14.6H281l29.9-76.1h16.6l29.9,76.1H342.2z M319.2,26.9l-13.7,36.3h27.4
	L319.2,26.9z"/>
<path fill="#00A9F0" d="M364.7,89.5V13.4h13.3v64.3h33.5v11.7H364.7z"/>
<path fill="#002B53" d="M477.2,89.5V58.9h-31.6v30.6h-19.6V13.3h19.6v28.4h31.6V13.3h19.6v76.2H477.2z"/>
<path fill="#002B53" d="M508.7,89.5V74.2c33-23.9,39.2-29.1,39.2-36.7c0-5.3-4.9-8-10.5-8c-8.5,0-14.8,3.2-20.3,8.3l-10.8-13
	c8.1-8.9,20.2-12.7,30.8-12.7c17.9,0,30.8,10.1,30.8,25.4c0,11.6-8.3,21.6-27.3,34.8h27.9v17.1H508.7z"/>
<path fill="#002B53" d="M574.9,51.5c0-23.2,17.5-39.4,40.8-39.4c23.3,0,40.7,16.2,40.7,39.4c0,23.2-17.4,39.4-40.7,39.4
	C592.4,90.9,574.9,74.6,574.9,51.5z M636.4,51.5c0-12.4-8.1-22-20.7-22c-12.7,0-20.8,9.6-20.8,22c0,12.3,8.1,22,20.8,22
	C628.3,73.5,636.4,63.8,636.4,51.5z"/>
</svg>
