<?xml version="1.0" encoding="utf-8"?>
<!-- Generator: Adobe Illustrator 18.1.1, SVG Export Plug-In . SVG Version: 6.00 Build 0)  -->
<svg version="1.1" id="Layer_1" xmlns="http://www.w3.org/2000/svg" xmlns:xlink="http://www.w3.org/1999/xlink" x="0px" y="0px"
	 viewBox="0 0 755.2 212.6" enable-background="new 0 0 755.2 212.6" xml:space="preserve">
<path fill="#ED5734" d="M419.5,136.5c4.6-1.8,6.2-5.1,6.2-9.2c0-9.5-7.2-12.5-18.1-12.5h-54.5v8.1h13.3v27.4h-13.3v8.1h59.7
	c7.4,0,14.1-3.1,14.1-11.1C426.9,142.1,424.1,138.5,419.5,136.5z M376.3,122.9h30.6c5.4,0,9.3,0.5,9.3,4.9c0,4.4-4.1,4.9-9.3,4.9
	h-30.6V122.9z M406.8,150.3h-30.6v-9.9h30.6c5.4,0,9.8,0.5,9.8,4.9C416.6,149.7,412,150.3,406.8,150.3z"/>
<polygon fill="#ED5734" points="587.4,80 580.6,80 580.6,89.6 548.2,89.6 548.2,62.2 561,62.2 561,54.1 526.8,54.1 526.8,62.2 
	539.5,62.2 539.5,89.6 526.8,89.6 526.8,97.6 587.4,97.6 "/>
<polygon fill="#ED5734" points="391.8,89.6 377.3,89.6 377.3,79.9 416.9,79.9 416.9,89.6 402.4,89.6 402.4,97.6 441.1,97.6 
	441.1,89.6 426.6,89.6 426.6,62.2 441.1,62.2 441.1,54.1 402.4,54.1 402.4,62.2 416.9,62.2 416.9,71.8 377.3,71.8 377.3,62.2 
	391.8,62.2 391.8,54.1 353.1,54.1 353.1,62.2 367.6,62.2 367.6,89.6 353.1,89.6 353.1,97.6 391.8,97.6 "/>
<polygon fill="#ED5734" points="518.1,80.6 510.3,80.6 510.3,89.6 470.4,89.6 470.4,79.9 489.3,79.9 489.3,85 497.1,85 497.1,66.7 
	489.3,66.7 489.3,71.9 470.4,71.9 470.4,62.2 510.3,62.2 510.3,71.1 518.1,71.1 518.1,54.1 447.8,54.1 447.8,62.2 460.6,62.2 
	460.6,89.6 447.8,89.6 447.8,97.6 518.1,97.6 "/>
<path fill="#ED5734" d="M686.4,53.3c-18.3,0-29.1,10.5-29.1,22.7c0,13.9,10.8,22.6,29.1,22.6c17.7,0,29.5-8.7,29.5-22.6
	C715.9,63.8,704.1,53.3,686.4,53.3z M686.4,90.5c-10,0-19.9-4.1-19.9-14.5c0-9.6,9.9-14.6,19.9-14.6c10.4,0,20.2,5,20.2,14.6
	C706.6,86.4,696.9,90.5,686.4,90.5z"/>
<polygon fill="#ED5734" points="646.3,89.6 613.9,89.6 613.9,62.2 626.7,62.2 626.7,54.1 592.4,54.1 592.4,62.2 605.2,62.2 
	605.2,89.6 592.4,89.6 592.4,97.6 653.1,97.6 653.1,80 646.3,80 "/>
<path fill="#ED5734" d="M590,147.9c0,2.8-2.3,4.1-5,4.1c-7.6,0-7.7-7.2-15.9-10.9c14.3-1.1,16.1-7.4,16.1-13c0-6.8-2.5-13.2-20-13.2
	h-48.9v8.1h14.4v27.4h-14.4v8.1h38.6v-8.1h-14.4v-9h10.4c16.9,0,13.7,18.7,33.9,18.7c6.9,0,13.2-2.7,13.2-12v-1.4H590V147.9z
	 M540.6,133.3v-10.3h24.1c7.6,0,11.3,1,11.3,5.2c0,4.2-3.7,5.2-11.3,5.2H540.6z"/>
<path fill="#ED5734" d="M477,114.9h-11.3l-24.9,35.4h-9.9v8.1h33v-8.1H453l4.7-6.7H485l4.7,6.7h-10.8v8.1h33v-8.1H502L477,114.9z
	 M463.3,135.7l8.1-11.6l8.1,11.6H463.3z"/>
<path fill="#ED5734" d="M269,75.8h-34.4v60.6H269v19h-92.6v-19h36.2v-24.6h-98.9v24.6h35.6v19H57.2v-19h35V75.8h-35V57.2h92.3v18.6
	h-35.6v18.4h98.9V75.8h-36.2V57.2H269V75.8z M751.3,0h-429h-9H3.9C1.8,0,0,1.8,0,3.9v204.8c0,2.2,1.8,3.9,3.9,3.9h309.4h9h429
	c2.2,0,3.9-1.8,3.9-3.9V3.9C755.2,1.8,753.4,0,751.3,0 M743.4,200.9H326.2V11.8h417.2V200.9z"/>
</svg>
