<?xml version="1.0" encoding="utf-8"?>
<!-- Generator: Adobe Illustrator 18.1.1, SVG Export Plug-In . SVG Version: 6.00 Build 0)  -->
<svg version="1.1" id="Layer_1" xmlns="http://www.w3.org/2000/svg" xmlns:xlink="http://www.w3.org/1999/xlink" x="0px" y="0px"
	 viewBox="0 0 487.9 66" enable-background="new 0 0 487.9 66" xml:space="preserve">
<polygon fill="#10A1CB" points="57.8,0.1 34,54.2 10.1,0.1 0,0.1 0,64.6 6.7,64.6 6.5,7.2 31.6,64.6 36.3,64.6 61.3,7.2 61.1,64.6 
	67.9,64.6 67.9,0.1 "/>
<polygon fill="#10A1CB" points="80.8,0.1 80.8,64.6 116.5,64.6 116.5,58.2 87.9,58.2 87.9,6.4 116.5,6.4 116.5,0.1 "/>
<polygon fill="#6F787C" points="324.7,0.1 324.7,64.6 360.4,64.6 360.4,58.2 331.8,58.2 331.8,6.4 360.4,6.4 360.4,0.1 "/>
<polygon fill="#6F787C" points="339.2,28.6 355.4,28.6 355.4,34.9 339.1,34.9 "/>
<polygon fill="#10A1CB" points="184,28.6 200.2,28.6 200.2,34.9 183.9,34.9 "/>
<polygon fill="#10A1CB" points="93.7,28.6 109.8,28.6 109.8,34.9 93.5,34.9 "/>
<polygon fill="#10A1CB" points="170.2,0.1 170.2,64.6 205.9,64.6 205.9,58.2 177.3,58.2 177.3,6.4 205.9,6.4 205.9,0.1 "/>
<polygon fill="#10A1CB" points="122.1,0.1 122.1,6.4 138,6.4 138,64.6 145.2,64.6 145.2,6.4 161.1,6.4 161.1,0.1 "/>
<polygon fill="#6F787C" points="266.5,64.6 266.5,0.1 273.7,0.1 273.7,28.8 304.8,28.8 304.8,0.1 312,0.1 312,64.6 304.8,64.6 
	304.8,35.1 273.7,35.1 273.7,64.6 "/>
<path fill="#6F787C" d="M371.4,0.1h16.8c10.1,0,14.8,1.2,18.1,3.3c5.2,3.1,8.8,10,8.8,17.3c0.1,4.4-1.1,9-3.8,12.6
	c-3.8,5.2-8.5,6.4-14.4,7.1l16,24.1h-7.8L387,36.4h2.1c4.5,0,10.8-0.1,14.3-3.3c3.4-3.3,4.9-7.2,4.9-11.9c0-4.8-2.4-9.8-6.4-12.5
	c-3.2-2.1-7.2-2.4-13.1-2.4h-10.1v58.1h-7.2V0.1z"/>
<path fill="#6F787C" d="M421.4,33.2c0-19.6,15.3-33.2,33.3-33.2c18.7,0,33.3,14.3,33.3,33c0,18.7-14.5,33-33.3,33
	C435.8,66,421.4,51.4,421.4,33.2L421.4,33.2z M428.6,33c0,15,11.3,26.7,26.2,26.7c15.1,0,26.1-12.1,26.1-26.7
	c0-14.6-11-26.7-26.2-26.7C439.7,6.3,428.6,18.2,428.6,33L428.6,33z"/>
<path fill="#10A1CB" d="M214.7,0.1h16.8c10.1,0,14.8,1.2,18.1,3.3c5.2,3.1,8.8,10,8.8,17.3c0.1,4.4-1.1,9-3.8,12.6
	c-3.8,5.2-8.5,6.4-14.4,7.1l16,24.1h-7.8l-18.2-28.2h2.1c4.5,0,10.8-0.1,14.3-3.3c3.4-3.3,4.9-7.2,4.9-11.9c0-4.8-2.4-9.8-6.4-12.5
	c-3.2-2.1-7.2-2.4-13.1-2.4H222v58.1h-7.2V0.1z"/>
</svg>
