<?xml version="1.0" encoding="utf-8"?>
<!-- Generator: Adobe Illustrator 18.1.1, SVG Export Plug-In . SVG Version: 6.00 Build 0)  -->
<svg version="1.1" id="Layer_1" xmlns="http://www.w3.org/2000/svg" xmlns:xlink="http://www.w3.org/1999/xlink" x="0px" y="0px"
	 viewBox="0 0 640.1 87.1" enable-background="new 0 0 640.1 87.1" xml:space="preserve">
<g>
	<g>
		<g>
			<path fill="#FFFFFF" d="M13.9,37.5v9.3c0,3.5,0.1,5.7,0.2,6.8c0.2,1.1,0.6,1.9,1.3,2.4c0.7,0.5,2.1,0.8,4,0.8H21v1.5H0.7v-1.5
				h1.2c1.9,0,3.2-0.2,3.9-0.7c0.7-0.5,1.2-1.2,1.4-2.2c0.2-1,0.3-3.4,0.3-7V25.2c0-3.5-0.1-5.8-0.3-6.8c-0.2-1-0.6-1.7-1.3-2.1
				c-0.7-0.4-2.1-0.6-4.4-0.6H0.7v-1.5l5.5-0.2c4.4-0.2,8.7-0.2,11.1-0.2c4.6,0,8.1,0.4,10.5,1.1c2.5,0.7,4.5,2,6.1,3.8
				c1.6,1.8,2.4,4.1,2.4,6.9c0,2.4-0.5,4.5-1.6,6.4c-1.1,1.8-2.6,3.2-4.6,4.2c-2,1-5.5,1.4-10.6,1.4H13.9z M13.9,35.9h3.9
				c2.5,0,4.6-0.3,6.2-0.8c1.6-0.5,2.9-1.6,3.9-3.2c1-1.6,1.6-3.6,1.6-6c0-3.7-0.9-6.3-2.7-8.1c-1.8-1.7-4.7-2.6-8.7-2.6
				c-1.5,0-3.4,0-4.2,0.1V35.9z"/>
			<path fill="#FFFFFF" d="M95.2,58.3H84.1c-2.1-1.5-5.3-5.3-9.7-11.6c-1.4-2-2.8-3.9-4.3-5.7c-1.5-1.8-2.5-3-3.1-3.4
				c-0.6-0.4-1.4-0.6-2.6-0.6h-0.6v9.8c0,3.5,0.1,5.7,0.2,6.8c0.2,1.1,0.6,1.9,1.3,2.4c0.7,0.5,2.1,0.8,4.1,0.8h2.1v1.5H50.3v-1.5
				h1.4c1.9,0,3.2-0.2,3.9-0.7c0.7-0.5,1.2-1.2,1.4-2.2c0.2-1,0.3-3.4,0.3-7V25.2c0-3.5-0.1-5.8-0.3-6.8c-0.2-1-0.6-1.7-1.3-2.1
				c-0.7-0.4-2.1-0.6-4.4-0.6h-0.8v-1.5l6.3-0.3c4.2-0.2,7.6-0.3,10-0.3c4.2,0,7.6,0.4,10.3,1.2c2.6,0.8,4.8,2.1,6.4,3.8
				c1.6,1.8,2.4,3.9,2.4,6.4c0,2.9-1.1,5.3-3.2,7.4c-2.1,2-6.2,3.4-10.3,3.9c1.8,0.9,4.7,4,8.8,9.5c3.3,4.5,6,7.4,7.9,8.8
				c1.9,1.4,3.4,2.1,6,2.2V58.3z M63.7,35.5c1.6,0,3.3-0.1,5-0.2c1.7-0.1,3.2-0.3,4.5-0.7c1.3-0.4,2.3-1,3.1-1.7
				c0.8-0.8,1.4-1.7,1.9-2.9c0.5-1.2,0.7-2.7,0.7-4.5c0-3.1-0.8-5.6-2.3-7.5c-1.5-1.9-4.9-2.8-10.1-2.8c-0.8,0-1.7,0-2.8,0.1V35.5z"
				/>
			<path fill="#FFFFFF" d="M142.7,46.7h1.6l-1,11.6h-36.5v-1.5h0.9c2.2,0,3.6-0.3,4.3-0.9c0.6-0.6,1-1.3,1.2-2.2
				c0.2-0.9,0.3-3.2,0.3-6.9V25.2c0-3.4-0.1-5.6-0.3-6.6c-0.2-1.1-0.6-1.8-1.3-2.2c-0.7-0.4-2.1-0.6-4.2-0.6v-1.5h31.6l1,11h-1.5
				c-0.7-3.1-1.5-5.3-2.6-6.6c-1-1.3-2.2-2.1-3.6-2.4c-1.4-0.3-3.6-0.5-6.7-0.5h-6.1v18.5h4.7c2.2,0,3.7-0.2,4.5-0.6
				c0.9-0.4,1.4-0.9,1.7-1.7c0.3-0.8,0.4-2.2,0.4-4.4h1.5v15.1h-1.5c0-2.5-0.2-4.1-0.6-4.9c-0.4-0.8-1-1.4-1.8-1.6
				c-0.8-0.2-2.1-0.4-4-0.4h-4.9v10.5c0,5.2,0.3,8.3,1,9.2c0.7,0.9,2.5,1.4,5.4,1.4h3.3c2.3,0,4.9-0.2,6.4-0.6
				c1.7-0.4,3.1-1.1,4.2-2.7C141.3,51.6,141.9,50,142.7,46.7z"/>
			<path fill="#FFFFFF" d="M161.1,24.8h-1.5l0.2-10.6h42.9l0.2,10.6h-1.4c-0.5-2.9-1.2-5-2.1-6.3c-0.9-1.3-1.8-2.1-2.8-2.4
				c-1-0.3-2.7-0.4-5.1-0.4h-7.1v31.2c0,3.4,0.1,5.7,0.2,6.8c0.2,1.1,0.6,1.9,1.3,2.4c0.7,0.5,2.1,0.8,4,0.8h2.1v1.5h-22v-1.5h2.3
				c1.9,0,3.2-0.2,3.9-0.7c0.7-0.5,1.2-1.2,1.4-2.2c0.2-1,0.3-3.4,0.3-7V15.7h-6.5c-2.8,0-4.8,0.1-5.7,0.4c-1,0.3-1.9,1.1-2.8,2.5
				C162.2,19.9,161.5,22,161.1,24.8z"/>
			<path fill="#FFFFFF" d="M219.2,24.8h-1.5l0.2-10.6h42.9l0.2,10.6h-1.4c-0.5-2.9-1.2-5-2-6.3c-0.9-1.3-1.8-2.1-2.8-2.4
				c-1-0.3-2.7-0.4-5.1-0.4h-7.1v31.2c0,3.4,0.1,5.7,0.2,6.8c0.2,1.1,0.6,1.9,1.3,2.4c0.7,0.5,2.1,0.8,4,0.8h2.1v1.5h-22v-1.5h2.3
				c1.9,0,3.2-0.2,3.9-0.7c0.7-0.5,1.2-1.2,1.4-2.2c0.2-1,0.3-3.4,0.3-7V15.7h-6.5c-2.8,0-4.8,0.1-5.7,0.4c-1,0.3-1.9,1.1-2.8,2.5
				C220.3,19.9,219.6,22,219.2,24.8z"/>
			<path fill="#FFFFFF" d="M299.2,39l8.7-14.6c1.4-2.4,2.1-4.1,2.1-5.1c0-0.9-0.4-1.7-1.1-2.5c-0.8-0.8-2.1-1.1-4.1-1.1v-1.5h14.4
				v1.5c-2,0.3-3.6,1-4.8,2.2c-1.2,1.2-2.8,3.4-4.7,6.6l-9.9,16.5v5.9c0,3.8,0.1,6.1,0.3,7.2c0.2,1,0.7,1.8,1.5,2.2
				c0.7,0.4,2.2,0.6,4.4,0.6v1.5h-18.8v-1.5h0.7c1.9,0,3.2-0.2,3.9-0.7c0.7-0.5,1.2-1.2,1.4-2.2c0.2-1,0.3-3.4,0.3-7v-5.4l-11-18.1
				c-2.2-3.6-3.7-5.8-4.5-6.5c-0.7-0.7-2.1-1.1-4-1.1v-1.5H292v1.5c-3.4,0-5,0.8-5,2.3c0,0.6,0.6,1.8,1.7,3.7L299.2,39z"/>
		</g>
		<g>
			<path fill="#FFFFFF" d="M396,71.5c-1,0.1-2.1,0.2-3.3,0.2c-7.1,0-12.9-2.1-17.4-6.3c-4.5-4.2-6.7-9.8-6.7-16.9
				c0-6.8,2.3-12.3,6.8-16.4c4.5-4.1,10.2-6.2,17.1-6.2c4.2,0,8.3,0.9,12.2,2.8c3.9,1.8,6.9,4.5,8.9,8.1c2,3.6,3,7.6,3,11.9
				c0,5.1-1.3,9.6-4,13.5c-2.6,3.9-6.4,6.6-11.4,8.2l-9.7,5.3c0.7-0.1,1.3-0.1,1.8-0.1c4.8,0,10.4,1.1,16.6,3.3
				c4.8,1.7,8.6,2.5,11.4,2.5c3.9,0,6.2-1.5,7-4.4h1.4c-0.4,3-1.6,5.4-3.7,7.3c-2.1,1.9-4.9,2.8-8.2,2.8c-2.2,0-4.2-0.4-6-1.1
				c-1.8-0.7-4.2-2-7.1-3.8c-5.2-3.3-9.5-5-13-5c-2.1,0-4.1,0.8-6,2.5c-1.3,1.1-2.2,1.6-2.7,1.6c-0.8,0-1.2-0.4-1.2-1.1
				c0-0.5,0.5-1.1,1.4-1.7c0.9-0.6,2.7-1.5,5.3-2.8c0.5-0.3,1.1-0.5,1.6-0.8L396,71.5z M376.1,48.7c0,7.1,1.4,12.4,4.2,16
				c2.8,3.6,7.1,5.3,12.7,5.3c5,0,8.9-1.8,11.8-5.3c2.9-3.6,4.3-8.9,4.3-15.9c0-6.9-1.4-12.1-4.3-15.8c-2.8-3.7-7-5.5-12.4-5.5
				c-5.3,0-9.4,1.8-12.2,5.4C377.5,36.5,376.1,41.8,376.1,48.7z"/>
			<path fill="#FFFFFF" d="M464.4,26.7h14.7v1.5c-2,0.1-3.4,0.6-4.4,1.3c-1,0.7-1.6,1.6-1.8,2.5c-0.2,0.9-0.3,2.7-0.3,5.4v14.7
				c0,3.8-0.2,6.5-0.4,8.4c-0.3,1.8-1.1,3.6-2.5,5.4c-1.4,1.8-3.4,3.2-5.9,4.2c-2.5,1-5.5,1.6-8.8,1.6c-3.9,0-7.3-0.7-10-2
				c-2.7-1.3-4.7-3.1-5.8-5.2c-1.2-2.1-1.7-5-1.7-8.5v-4.5V37.7c0-3.5-0.1-5.8-0.3-6.8c-0.2-1-0.6-1.7-1.3-2.1
				c-0.7-0.4-2.1-0.6-4.3-0.6h-1v-1.5h20.2v1.5h-0.9c-2.2,0-3.6,0.2-4.3,0.5c-0.7,0.4-1.1,1-1.3,2c-0.2,1-0.3,3.3-0.3,7v13.9
				c0,4.8,0.2,8.2,0.7,10.3c0.4,2,1.7,3.8,3.8,5.3c2.1,1.5,4.8,2.3,8.2,2.3c2.7,0,5.1-0.5,7.3-1.5c2.2-1,3.8-2.3,4.9-3.8
				c1.1-1.5,1.7-3.1,2-4.7c0.2-1.6,0.4-4.1,0.4-7.5v-15c0-2.5-0.1-4.2-0.4-5.2c-0.3-1-0.9-1.8-1.8-2.4c-0.9-0.6-2.4-0.9-4.4-1.1
				V26.7z"/>
			<path fill="#FFFFFF" d="M494.9,28.2v-1.5H515v1.5h-0.9c-2.2,0-3.6,0.2-4.3,0.5c-0.7,0.4-1.1,1-1.4,2c-0.2,1-0.3,3.3-0.3,7v21.6
				c0,3.5,0.1,5.7,0.2,6.8c0.2,1.1,0.6,1.9,1.3,2.4c0.7,0.5,2.1,0.8,4.1,0.8h1.3v1.5h-20.2v-1.5h1.3c1.9,0,3.2-0.2,3.9-0.7
				c0.7-0.5,1.2-1.2,1.4-2.2c0.2-1,0.3-3.4,0.3-7V37.7c0-3.5-0.1-5.8-0.3-6.8c-0.2-1-0.6-1.7-1.3-2.1c-0.7-0.4-2.1-0.6-4.4-0.6
				H494.9z"/>
			<path fill="#FFFFFF" d="M571.4,54.3h1.4v15.5h-1.4c-0.4-1.8-1.1-3.3-2.1-4.7c-3.9,4.4-8.8,6.6-14.9,6.6c-6.4,0-11.6-2-15.7-6.1
				c-4-4-6.1-9.4-6.1-16c0-4.4,0.9-8.5,2.8-12.3c1.9-3.9,4.5-6.7,7.8-8.6c3.3-1.9,7-2.8,11-2.8c3.3,0,6.3,0.7,9,2
				c2.7,1.4,4.7,2.9,6,4.5c0.9-1.8,1.5-3.8,1.7-5.7h1.4l0.4,16.7h-1.4c-1-5.9-3-10.1-6-12.4c-3-2.3-6.4-3.5-10.2-3.5
				c-4.6,0-8.3,1.9-11,5.6c-2.7,3.8-4.1,9.1-4.1,16.1c0,6.6,1.5,11.7,4.5,15.2c3,3.5,6.7,5.3,11.1,5.3c2.4,0,4.8-0.6,7.3-1.7
				c2.5-1.2,4.4-3.1,5.9-5.8C570.3,59.5,571.1,56.9,571.4,54.3z"/>
			<path fill="#FFFFFF" d="M603.2,49.2l13.5-12.1c3.1-2.8,4.7-4.8,4.7-6c0-1.8-1.6-2.8-4.7-2.8v-1.5h16.7v1.5
				c-1.4,0-2.7,0.3-4.1,0.9c-1.4,0.6-2.6,1.3-3.8,2.2c-1.2,0.9-3.3,2.8-6.4,5.8l-8,7.4l16.5,16.7c3.8,3.9,6.3,6.2,7.6,7
				c1.3,0.8,2.9,1.2,5,1.2v1.5h-22.9v-1.5h0.9c2.5,0,4-0.2,4.6-0.6c0.6-0.4,0.9-0.9,0.9-1.5c0-0.9-1.6-2.9-4.7-6.1l-12.5-12.6
				l-3.2,2.8v8c0,3.5,0.1,5.7,0.3,6.8c0.2,1.1,0.6,1.9,1.3,2.4c0.7,0.5,2.1,0.8,4,0.8h0.9v1.5h-19.9v-1.5h1.4c1.9,0,3.2-0.2,3.9-0.7
				c0.7-0.5,1.2-1.2,1.4-2.2c0.2-1,0.3-3.4,0.3-7V37.7c0-3.6-0.1-6-0.3-7c-0.2-1-0.7-1.7-1.4-2c-0.7-0.3-2.2-0.5-4.7-0.5v-1.5H610
				v1.5h-0.8c-2.2,0-3.6,0.2-4.3,0.5c-0.7,0.4-1.1,1-1.3,2c-0.2,1-0.3,3.3-0.3,7V49.2z"/>
		</g>
	</g>
	<g>
		<linearGradient id="SVGID_1_" gradientUnits="userSpaceOnUse" x1="17.8086" y1="57.564" x2="17.8086" y2="12.9624">
			<stop  offset="0" style="stop-color:#000000"/>
			<stop  offset="9.064090e-02" style="stop-color:#18160E"/>
			<stop  offset="0.8072" style="stop-color:#2F2C24"/>
			<stop  offset="1" style="stop-color:#6A5E4C"/>
		</linearGradient>
		<path fill="url(#SVGID_1_)" d="M13.2,36.8v9.3c0,3.5,0.1,5.7,0.2,6.8c0.2,1.1,0.6,1.9,1.3,2.4c0.7,0.5,2.1,0.8,4,0.8h1.5v1.5H0
			v-1.5h1.2c1.9,0,3.2-0.2,3.9-0.7c0.7-0.5,1.2-1.2,1.4-2.2c0.2-1,0.3-3.4,0.3-7V24.4c0-3.5-0.1-5.8-0.3-6.8c-0.2-1-0.6-1.7-1.3-2.1
			c-0.7-0.4-2.1-0.6-4.4-0.6H0v-1.5l5.5-0.2C10,13,14.2,13,16.7,13c4.6,0,8.1,0.4,10.5,1.1c2.5,0.7,4.5,2,6.1,3.8
			c1.6,1.8,2.4,4.1,2.4,6.9c0,2.4-0.5,4.5-1.6,6.4c-1.1,1.8-2.6,3.2-4.6,4.2c-2,1-5.5,1.4-10.6,1.4H13.2z M13.2,35.2h3.9
			c2.5,0,4.6-0.3,6.2-0.8c1.6-0.5,2.9-1.6,3.9-3.2c1-1.6,1.6-3.6,1.6-6c0-3.7-0.9-6.3-2.7-8.1c-1.8-1.7-4.7-2.6-8.7-2.6
			c-1.5,0-3.4,0-4.2,0.1V35.2z"/>
		<linearGradient id="SVGID_2_" gradientUnits="userSpaceOnUse" x1="71.9888" y1="57.564" x2="71.9888" y2="12.8028">
			<stop  offset="0" style="stop-color:#000000"/>
			<stop  offset="9.064090e-02" style="stop-color:#18160E"/>
			<stop  offset="0.8072" style="stop-color:#2F2C24"/>
			<stop  offset="1" style="stop-color:#6A5E4C"/>
		</linearGradient>
		<path fill="url(#SVGID_2_)" d="M94.4,57.6H83.3c-2.1-1.5-5.3-5.3-9.7-11.6c-1.4-2-2.8-3.9-4.3-5.7c-1.5-1.8-2.5-3-3.1-3.4
			c-0.6-0.4-1.4-0.6-2.6-0.6H63v9.8c0,3.5,0.1,5.7,0.2,6.8c0.2,1.1,0.6,1.9,1.3,2.4c0.7,0.5,2.1,0.8,4.1,0.8h2.1v1.5H49.6v-1.5H51
			c1.9,0,3.2-0.2,3.9-0.7c0.7-0.5,1.2-1.2,1.4-2.2c0.2-1,0.3-3.4,0.3-7V24.4c0-3.5-0.1-5.8-0.3-6.8c-0.2-1-0.6-1.7-1.3-2.1
			c-0.7-0.4-2.1-0.6-4.4-0.6h-0.7v-1.5l6.3-0.3c4.2-0.2,7.6-0.3,10-0.3c4.2,0,7.6,0.4,10.3,1.2c2.6,0.8,4.8,2.1,6.4,3.8
			c1.6,1.8,2.4,3.9,2.4,6.4c0,2.9-1.1,5.3-3.2,7.4c-2.1,2-6.2,3.4-10.3,3.9c1.8,0.9,4.7,4,8.8,9.5c3.3,4.5,6,7.4,7.9,8.8
			c1.9,1.4,3.4,2.1,6,2.2V57.6z M63,34.8c1.6,0,3.3-0.1,5-0.2c1.7-0.1,3.2-0.3,4.5-0.7c1.3-0.4,2.3-1,3.1-1.7
			c0.8-0.7,1.4-1.7,1.9-2.9c0.5-1.2,0.7-2.7,0.7-4.5c0-3.1-0.8-5.6-2.3-7.5c-1.5-1.9-4.9-2.8-10.1-2.8c-0.8,0-1.7,0-2.8,0.1V34.8z"
			/>
		<linearGradient id="SVGID_3_" gradientUnits="userSpaceOnUse" x1="124.7471" y1="57.564" x2="124.7471" y2="13.4175">
			<stop  offset="0" style="stop-color:#000000"/>
			<stop  offset="9.064090e-02" style="stop-color:#18160E"/>
			<stop  offset="0.8072" style="stop-color:#2F2C24"/>
			<stop  offset="1" style="stop-color:#6A5E4C"/>
		</linearGradient>
		<path fill="url(#SVGID_3_)" d="M141.9,46h1.6l-1,11.6H106v-1.5h0.9c2.2,0,3.6-0.3,4.3-0.9c0.6-0.6,1-1.3,1.2-2.2
			c0.2-0.9,0.3-3.2,0.3-6.9V24.4c0-3.4-0.1-5.6-0.3-6.6c-0.2-1.1-0.6-1.8-1.3-2.2c-0.7-0.4-2.1-0.6-4.2-0.6v-1.5h31.6l1,11H138
			c-0.7-3.1-1.5-5.3-2.6-6.6c-1-1.3-2.2-2.1-3.6-2.4c-1.4-0.3-3.6-0.5-6.7-0.5H119v18.5h4.7c2.2,0,3.7-0.2,4.5-0.6
			c0.9-0.4,1.4-0.9,1.7-1.7c0.3-0.8,0.4-2.2,0.4-4.4h1.5v15.1h-1.5c0-2.5-0.2-4.1-0.6-4.9c-0.4-0.8-1-1.4-1.8-1.6
			c-0.8-0.2-2.1-0.4-4-0.4H119v10.4c0,5.2,0.3,8.3,1,9.2c0.7,0.9,2.5,1.4,5.4,1.4h3.3c2.3,0,4.9-0.2,6.4-0.6
			c1.7-0.4,3.1-1.1,4.2-2.7C140.6,50.8,141.2,49.2,141.9,46z"/>
		<linearGradient id="SVGID_4_" gradientUnits="userSpaceOnUse" x1="180.4946" y1="57.564" x2="180.4946" y2="13.4175">
			<stop  offset="0" style="stop-color:#000000"/>
			<stop  offset="9.064090e-02" style="stop-color:#18160E"/>
			<stop  offset="0.8072" style="stop-color:#2F2C24"/>
			<stop  offset="1" style="stop-color:#6A5E4C"/>
		</linearGradient>
		<path fill="url(#SVGID_4_)" d="M160.3,24h-1.5l0.2-10.6h42.9l0.2,10.6h-1.4c-0.5-2.9-1.2-5-2.1-6.3c-0.9-1.3-1.8-2.1-2.8-2.4
			c-1-0.3-2.7-0.4-5.1-0.4h-7.1v31.2c0,3.5,0.1,5.7,0.2,6.8c0.2,1.1,0.6,1.9,1.3,2.4c0.7,0.5,2.1,0.8,4,0.8h2.1v1.5h-22v-1.5h2.3
			c1.9,0,3.2-0.2,3.9-0.7c0.7-0.5,1.2-1.2,1.4-2.2c0.2-1,0.3-3.4,0.3-7V14.9h-6.5c-2.8,0-4.8,0.1-5.7,0.4c-1,0.3-1.9,1.1-2.8,2.5
			C161.4,19.1,160.8,21.2,160.3,24z"/>
		<linearGradient id="SVGID_5_" gradientUnits="userSpaceOnUse" x1="238.6045" y1="57.564" x2="238.6045" y2="13.4175">
			<stop  offset="0" style="stop-color:#000000"/>
			<stop  offset="9.064090e-02" style="stop-color:#18160E"/>
			<stop  offset="0.8072" style="stop-color:#2F2C24"/>
			<stop  offset="1" style="stop-color:#6A5E4C"/>
		</linearGradient>
		<path fill="url(#SVGID_5_)" d="M218.4,24h-1.5l0.2-10.6H260l0.2,10.6h-1.4c-0.5-2.9-1.2-5-2-6.3c-0.9-1.3-1.8-2.1-2.8-2.4
			c-1-0.3-2.7-0.4-5.1-0.4h-7.1v31.2c0,3.5,0.1,5.7,0.2,6.8c0.2,1.1,0.6,1.9,1.3,2.4c0.7,0.5,2.1,0.8,4,0.8h2.2v1.5h-22v-1.5h2.3
			c1.9,0,3.2-0.2,3.9-0.7c0.7-0.5,1.2-1.2,1.4-2.2c0.2-1,0.3-3.4,0.3-7V14.9h-6.5c-2.8,0-4.8,0.1-5.7,0.4c-1,0.3-1.9,1.1-2.8,2.5
			C219.6,19.1,218.9,21.2,218.4,24z"/>
		<linearGradient id="SVGID_6_" gradientUnits="userSpaceOnUse" x1="295.9307" y1="57.564" x2="295.9307" y2="13.4175">
			<stop  offset="0" style="stop-color:#000000"/>
			<stop  offset="9.064090e-02" style="stop-color:#18160E"/>
			<stop  offset="0.8072" style="stop-color:#2F2C24"/>
			<stop  offset="1" style="stop-color:#6A5E4C"/>
		</linearGradient>
		<path fill="url(#SVGID_6_)" d="M298.5,38.3l8.7-14.6c1.4-2.4,2.1-4.1,2.1-5.1c0-0.9-0.4-1.7-1.1-2.5c-0.8-0.8-2.1-1.1-4.1-1.1
			v-1.5h14.4v1.5c-2,0.3-3.6,1-4.8,2.2c-1.2,1.2-2.8,3.4-4.7,6.6l-9.9,16.5v5.9c0,3.8,0.1,6.1,0.3,7.2c0.2,1,0.7,1.8,1.5,2.2
			c0.8,0.4,2.2,0.6,4.4,0.6v1.5h-18.8v-1.5h0.7c1.9,0,3.2-0.2,3.9-0.7c0.7-0.5,1.2-1.2,1.4-2.2c0.2-1,0.3-3.4,0.3-7v-5.4l-11-18.1
			c-2.2-3.6-3.7-5.8-4.5-6.5c-0.7-0.7-2.1-1.1-4-1.1v-1.5h17.9v1.5c-3.4,0-5,0.8-5,2.3c0,0.6,0.6,1.8,1.7,3.7L298.5,38.3z"/>
	</g>
	<g>
		<linearGradient id="SVGID_7_" gradientUnits="userSpaceOnUse" x1="398.4366" y1="86.3872" x2="398.4366" y2="25.1851">
			<stop  offset="0" style="stop-color:#000000"/>
			<stop  offset="9.064090e-02" style="stop-color:#18160E"/>
			<stop  offset="0.7964" style="stop-color:#2F2C24"/>
			<stop  offset="1" style="stop-color:#6A5E4C"/>
		</linearGradient>
		<path fill="url(#SVGID_7_)" d="M395.3,70.8c-1,0.1-2.1,0.2-3.3,0.2c-7.1,0-12.9-2.1-17.4-6.3c-4.5-4.2-6.7-9.8-6.7-16.8
			c0-6.8,2.3-12.3,6.8-16.4c4.5-4.1,10.2-6.2,17.1-6.2c4.2,0,8.3,0.9,12.2,2.8c3.9,1.8,6.9,4.5,8.9,8.1c2,3.6,3,7.6,3,11.9
			c0,5.1-1.3,9.6-4,13.5c-2.6,3.9-6.4,6.6-11.4,8.2l-9.7,5.3c0.7-0.1,1.3-0.1,1.8-0.1c4.8,0,10.4,1.1,16.6,3.3
			c4.8,1.7,8.6,2.5,11.4,2.5c3.9,0,6.2-1.5,7-4.4h1.4c-0.4,3-1.6,5.4-3.7,7.3c-2.1,1.9-4.9,2.8-8.2,2.8c-2.2,0-4.2-0.4-6-1.1
			c-1.8-0.7-4.2-2-7.1-3.8c-5.2-3.3-9.5-5-13-5c-2.1,0-4.1,0.8-6,2.5c-1.3,1.1-2.2,1.6-2.7,1.6c-0.8,0-1.2-0.4-1.2-1.1
			c0-0.5,0.5-1.1,1.4-1.7c0.9-0.6,2.7-1.5,5.3-2.8c0.5-0.3,1.1-0.5,1.6-0.8L395.3,70.8z M375.4,48c0,7.1,1.4,12.4,4.2,16
			c2.8,3.6,7.1,5.3,12.7,5.3c5,0,8.9-1.8,11.8-5.3c2.9-3.6,4.3-8.9,4.3-15.9c0-6.9-1.4-12.1-4.3-15.8c-2.8-3.7-7-5.5-12.4-5.5
			c-5.3,0-9.4,1.8-12.2,5.4C376.8,35.7,375.4,41,375.4,48z"/>
		<linearGradient id="SVGID_8_" gradientUnits="userSpaceOnUse" x1="454.0864" y1="70.9566" x2="454.0864" y2="25.9995">
			<stop  offset="0" style="stop-color:#000000"/>
			<stop  offset="9.064090e-02" style="stop-color:#18160E"/>
			<stop  offset="0.7964" style="stop-color:#2F2C24"/>
			<stop  offset="1" style="stop-color:#6A5E4C"/>
		</linearGradient>
		<path fill="url(#SVGID_8_)" d="M463.7,26h14.7v1.5c-2,0.1-3.4,0.6-4.4,1.3c-1,0.7-1.6,1.6-1.8,2.5c-0.2,0.9-0.3,2.7-0.3,5.4v14.7
			c0,3.8-0.2,6.5-0.4,8.4c-0.3,1.8-1.1,3.6-2.5,5.4c-1.4,1.8-3.4,3.2-5.9,4.2c-2.5,1-5.5,1.6-8.8,1.6c-3.9,0-7.3-0.7-10-2
			c-2.7-1.3-4.7-3.1-5.8-5.2c-1.2-2.1-1.7-5-1.7-8.5v-4.5V37c0-3.5-0.1-5.8-0.3-6.8c-0.2-1-0.6-1.7-1.3-2.1
			c-0.7-0.4-2.1-0.6-4.3-0.6h-1V26h20.2v1.5h-0.9c-2.2,0-3.6,0.2-4.3,0.5c-0.7,0.4-1.1,1-1.3,2c-0.2,1-0.3,3.3-0.3,7v13.9
			c0,4.8,0.2,8.2,0.7,10.3c0.4,2,1.7,3.8,3.8,5.3c2.1,1.5,4.8,2.3,8.2,2.3c2.7,0,5.1-0.5,7.3-1.5c2.2-1,3.8-2.3,4.9-3.8
			c1.1-1.5,1.7-3.1,2-4.7c0.2-1.6,0.4-4.1,0.4-7.5v-15c0-2.5-0.1-4.2-0.4-5.2c-0.3-1-0.9-1.8-1.8-2.4c-0.9-0.6-2.4-0.9-4.4-1.1V26z"
			/>
		<linearGradient id="SVGID_9_" gradientUnits="userSpaceOnUse" x1="504.2168" y1="70.1421" x2="504.2168" y2="25.9995">
			<stop  offset="0" style="stop-color:#000000"/>
			<stop  offset="9.064090e-02" style="stop-color:#18160E"/>
			<stop  offset="0.7964" style="stop-color:#2F2C24"/>
			<stop  offset="1" style="stop-color:#6A5E4C"/>
		</linearGradient>
		<path fill="url(#SVGID_9_)" d="M494.1,27.5V26h20.2v1.5h-1c-2.2,0-3.6,0.2-4.3,0.5c-0.7,0.4-1.1,1-1.4,2c-0.2,1-0.3,3.3-0.3,7
			v21.6c0,3.5,0.1,5.7,0.2,6.8c0.2,1.1,0.6,1.9,1.3,2.4c0.7,0.5,2.1,0.8,4.1,0.8h1.3v1.5h-20.2v-1.5h1.3c1.9,0,3.2-0.2,3.9-0.7
			c0.7-0.5,1.2-1.2,1.4-2.2c0.2-1,0.3-3.4,0.3-7V37c0-3.5-0.1-5.8-0.3-6.8c-0.2-1-0.6-1.7-1.3-2.1c-0.7-0.4-2.1-0.6-4.4-0.6H494.1z"
			/>
		<linearGradient id="SVGID_10_" gradientUnits="userSpaceOnUse" x1="552.0196" y1="70.9566" x2="552.0196" y2="25.1851">
			<stop  offset="0" style="stop-color:#000000"/>
			<stop  offset="9.064090e-02" style="stop-color:#18160E"/>
			<stop  offset="0.7964" style="stop-color:#2F2C24"/>
			<stop  offset="1" style="stop-color:#6A5E4C"/>
		</linearGradient>
		<path fill="url(#SVGID_10_)" d="M570.7,53.6h1.4V69h-1.4c-0.4-1.8-1.1-3.3-2.1-4.7c-3.9,4.4-8.8,6.6-14.9,6.6
			c-6.4,0-11.6-2-15.6-6.1c-4-4-6.1-9.4-6.1-16c0-4.4,0.9-8.5,2.8-12.3c1.9-3.9,4.5-6.7,7.8-8.6c3.3-1.9,7-2.8,11-2.8
			c3.3,0,6.3,0.7,9,2c2.7,1.4,4.7,2.9,6,4.5c0.9-1.8,1.5-3.8,1.7-5.7h1.4l0.4,16.7h-1.4c-1-5.9-3-10.1-6-12.4
			c-3-2.3-6.4-3.5-10.2-3.5c-4.6,0-8.3,1.9-11,5.6c-2.7,3.8-4.1,9.1-4.1,16.1c0,6.6,1.5,11.7,4.5,15.2c3,3.5,6.7,5.3,11.1,5.3
			c2.4,0,4.8-0.6,7.3-1.7c2.5-1.1,4.4-3.1,5.9-5.8C569.6,58.8,570.4,56.1,570.7,53.6z"/>
		<linearGradient id="SVGID_11_" gradientUnits="userSpaceOnUse" x1="614.2564" y1="70.1421" x2="614.2564" y2="25.9995">
			<stop  offset="0" style="stop-color:#000000"/>
			<stop  offset="9.064090e-02" style="stop-color:#18160E"/>
			<stop  offset="0.7964" style="stop-color:#2F2C24"/>
			<stop  offset="1" style="stop-color:#6A5E4C"/>
		</linearGradient>
		<path fill="url(#SVGID_11_)" d="M602.5,48.5L616,36.3c3.1-2.8,4.7-4.8,4.7-6c0-1.8-1.6-2.7-4.7-2.8V26h16.7v1.5
			c-1.4,0-2.7,0.3-4.1,0.9c-1.4,0.6-2.6,1.3-3.8,2.2c-1.2,0.9-3.3,2.8-6.4,5.8l-8,7.4l16.5,16.7c3.8,3.9,6.3,6.2,7.6,7
			c1.3,0.8,2.9,1.2,5,1.2v1.5h-23v-1.5h0.9c2.5,0,4-0.2,4.6-0.6c0.6-0.4,0.9-0.9,0.9-1.5c0-0.9-1.6-2.9-4.7-6.1l-12.5-12.6l-3.2,2.8
			v8c0,3.5,0.1,5.7,0.3,6.8c0.2,1.1,0.6,1.9,1.3,2.4c0.7,0.5,2.1,0.8,4,0.8h0.9v1.5h-19.9v-1.5h1.4c1.9,0,3.2-0.2,3.9-0.7
			c0.7-0.5,1.2-1.2,1.4-2.2c0.2-1,0.3-3.4,0.3-7V37c0-3.6-0.1-6-0.3-7c-0.2-1-0.7-1.7-1.4-2c-0.7-0.3-2.2-0.5-4.7-0.5V26h19.6v1.5
			h-0.8c-2.2,0-3.6,0.2-4.3,0.5c-0.7,0.4-1.1,1-1.4,2c-0.2,1-0.3,3.3-0.3,7V48.5z"/>
	</g>
	<path fill="#FFFFFF" d="M386.7,1.7c-1.3-0.3-14.6-3.7-24.2,9.8l-44.4,61.9l0,0c-0.1,0.1-0.2,0.2-0.3,0.4c-0.3,0.4-0.6,0.8-0.9,1.2
		c-5.3,6.3-12.8,8.9-16,6.7c-3.6-2.5-6.6-1.6-7.1-0.1c-0.4,1.2,0.1,2.6,2.2,3.1c0.3,0.1,0.9,0.2,1.9,0.4c0.6,0.1,1.5,0.2,2.6,0.2
		c0.2,0,0.4,0,0.5,0c0,0,0,0,0.1,0c0,0,0.1,0,0.1,0c3.8,0,9-0.9,14-5c0,0,0,0,0,0c0.4-0.3,0.8-0.7,1.2-1.1c0,0,0.1-0.1,0.1-0.1
		c0.3-0.3,0.7-0.6,1-1c0.2-0.2,0.3-0.3,0.5-0.5c0.2-0.2,0.4-0.5,0.6-0.7c0.2-0.2,0.3-0.4,0.5-0.6c0.2-0.3,0.4-0.6,0.7-0.9
		c0.1-0.2,0.2-0.3,0.3-0.4L364.6,13c5.3-7.4,13.8-10.6,17.2-8.2c3.6,2.5,6.6,1.6,7.1,0.1C389.3,3.6,388.8,2.2,386.7,1.7z"/>
	<linearGradient id="SVGID_12_" gradientUnits="userSpaceOnUse" x1="323.9714" y1="59.1627" x2="385.1694" y2="-2.0353">
		<stop  offset="0.3146" style="stop-color:#D8C898"/>
		<stop  offset="0.9585" style="stop-color:#CEB78A"/>
		<stop  offset="1" style="stop-color:#CDB689"/>
	</linearGradient>
	<path fill="url(#SVGID_12_)" d="M386.4,0.6c-1.3-0.3-14.6-3.7-24.2,9.8l-44.4,61.9l0,0c-0.1,0.1-0.2,0.2-0.3,0.4
		c-0.3,0.4-0.6,0.8-0.9,1.2c-5.3,6.3-12.8,8.9-16,6.7c-3.6-2.5-6.6-1.6-7.1-0.1c-0.4,1.2,0.1,2.6,2.2,3.1c0.3,0.1,0.9,0.2,1.9,0.4
		c0.6,0.1,1.5,0.2,2.6,0.2c0.2,0,0.4,0,0.5,0c0,0,0,0,0.1,0c0,0,0.1,0,0.1,0c3.8,0,9-0.9,14-5c0,0,0,0,0,0c0.4-0.3,0.8-0.7,1.2-1.1
		c0,0,0.1-0.1,0.1-0.1c0.3-0.3,0.7-0.6,1-1c0.2-0.2,0.3-0.3,0.5-0.5c0.2-0.2,0.4-0.5,0.6-0.7c0.2-0.2,0.3-0.4,0.5-0.6
		c0.2-0.3,0.4-0.6,0.7-0.9c0.1-0.2,0.2-0.3,0.3-0.4l44.4-61.9c5.3-7.4,13.8-10.6,17.2-8.2c3.6,2.5,6.6,1.6,7.1,0.1
		C389,2.5,388.5,1.2,386.4,0.6z"/>
</g>
</svg>
