<?xml version="1.0" encoding="utf-8"?>
<!-- Generator: Adobe Illustrator 18.1.1, SVG Export Plug-In . SVG Version: 6.00 Build 0)  -->
<svg version="1.1" id="Layer_1" xmlns="http://www.w3.org/2000/svg" xmlns:xlink="http://www.w3.org/1999/xlink" x="0px" y="0px"
	 viewBox="33.6 385.5 612.1 220.1" enable-background="new 33.6 385.5 612.1 220.1" xml:space="preserve">
<g>
	<path fill="#FF6C00" d="M145.9,515.7c4.8-4,8.9-8.6,12.2-13.8s6.1-10.8,7.8-16.8s2.7-12.2,2.7-18.6c0-12.6-2.2-22.9-6.7-31.3
		c-4.5-8.4-10.4-15.1-18.1-20.2c-7.6-5.1-16.4-8.7-26.4-11c-10-2.2-20.5-3.3-31.4-3.3H33.6v199.9h47.3v-69.9l51.1,69.9h39.7v-21.3
		L129.8,525C135.8,522.8,141.1,519.6,145.9,515.7z M113.6,488.2c-4.8,6.1-11.7,9-20.8,9c-1.7,0-3.6-0.3-5.9-0.8
		c-2.2-0.4-4.1-1-5.9-1.4v-54.7h12.4c9.4,0,16.2,1.9,20.6,5.7c4.5,3.8,6.7,10.4,6.7,20C120.8,474.8,118.3,482.2,113.6,488.2z"/>
	<rect x="188.7" y="451.3" fill="#FF6C00" width="43.5" height="149.3"/>
	<path fill="#FF6C00" d="M229.5,393.1c-2.4-2-5.2-3.8-8.4-5.1c-3.2-1.3-6.5-1.9-9.9-1.9c-3.5,0-6.8,0.6-10.2,1.9
		c-3.3,1.3-6.4,3.2-9,5.5c-2.7,2.4-4.8,5.1-6.2,8.3c-1.6,3.2-2.2,6.5-2.2,10.2c0,3.6,0.8,7,2.2,9.9c1.6,3,3.5,5.5,5.9,7.6
		s5.2,3.8,8.4,4.9s6.5,1.7,9.9,1.7c3.5,0,6.8-0.6,10.2-1.9c3.4-1.3,6.4-3,8.9-5.4c2.5-2.4,4.6-5.1,6.2-8.3c1.6-3.2,2.4-6.5,2.4-10.2
		s-0.8-7-2.2-9.9C234,397.7,231.9,395.1,229.5,393.1z"/>
	<path fill="#FF6C00" d="M312.2,428c2.5-3,5.4-5.2,8.4-6.8c3.6-2,7.8-3.5,12.6-4.3l-6.7-31.4c-11.6,0.8-21.9,3-31.1,6.7
		c-3.8,1.6-7.6,3.6-11.4,6.2c-3.8,2.5-7,5.7-9.9,9.4c-2.9,3.6-5.2,8-7,12.9c-1.7,4.9-2.7,10.4-2.7,16.8v14h-14.9v31.7l14.9,2.4
		v115.1h44.2V486.9h22.9v-35.6h-22.9v-12.3C308.5,434.7,309.7,431,312.2,428z"/>
	<rect x="348.3" y="451.3" fill="#FF6C00" width="43.5" height="149.3"/>
	<path fill="#FF6C00" d="M389.1,393.1c-2.4-2-5.2-3.8-8.4-5.1c-3.2-1.3-6.5-1.9-9.9-1.9c-3.5,0-6.8,0.6-10.2,1.9
		c-3.3,1.3-6.4,3.2-9,5.5s-4.8,5.1-6.2,8.3c-1.6,3.2-2.2,6.5-2.2,10.2c0,3.6,0.8,7,2.2,9.9c1.6,3,3.5,5.5,5.9,7.6
		c2.4,2,5.2,3.8,8.4,4.9c3.2,1.1,6.5,1.7,9.9,1.7c3.5,0,6.8-0.6,10.2-1.9c3.4-1.3,6.4-3,8.9-5.4c2.5-2.4,4.6-5.1,6.2-8.3
		c1.6-3.2,2.4-6.5,2.4-10.2s-0.8-7-2.2-9.9C393.5,397.7,391.5,395.1,389.1,393.1z"/>
	<path fill="#FF6C00" d="M490.9,447.5c-1.9-0.4-4-0.8-6.2-0.8c-2,0-4.1,0.8-6.4,2.4c-2.2,1.6-4.5,3.5-6.7,5.5
		c-2.4,2.2-4.9,4.8-7.6,7.6v-11h-44.5v149.3h44V494.5c0.8-0.6,1.9-1.3,3-2c1-0.6,2.2-1.1,3.6-1.7c1.4-0.4,3.2-0.8,5.2-0.8
		c2.2,0,4.5,0.3,6.7,0.8c2.2,0.4,4.3,1.1,6.1,1.7l6.4,2l5.7-43.2c-1.4-0.6-3-1.3-4.6-2C494.5,448.6,492.8,448,490.9,447.5z"/>
	<path fill="#FF6C00" d="M640.8,577.7c-1.1-0.8-1.9-1.9-2.4-3.2c-0.4-1.3-0.8-2.9-1-4.5c-0.1-1.6-0.1-3.2-0.1-4.9V388.9h-44.3v62.4
		c-3.5-1.3-7.1-2.2-11-3.2c-3.8-1-7.5-1.4-11-1.4c-12.6,0-23.2,2.4-31.6,7c-8.4,4.6-15.2,10.8-20.3,18.6
		c-5.1,7.8-8.7,16.7-10.8,26.7c-2,10-3.2,20.6-3.2,31.6c0,9.2,1.3,18.1,3.8,27.1c2.5,8.9,6.4,17,11.6,24.1s11.6,12.9,19.2,17.1
		c7.6,4.5,16.5,6.5,26.7,6.5c3.2,0,6.7-0.4,10-1.6c3.5-1,6.7-2.5,9.9-4.5c3.2-1.9,5.9-4.1,8.4-6.7c2.4-2.5,4.3-5.4,5.5-8.4
		c1.9,7.1,5.2,12.4,10,15.9c4.9,3.5,10.3,5.2,16.2,5.2c1.6,0,3.2,0,4.9-0.1c1.6-0.1,3.2-0.1,4.9-0.1l9.2-26.2
		C643.5,579,641.9,578.6,640.8,577.7z M593,528.7c0,3.5-0.3,7.5-1.1,12.2c-0.6,4.6-1.9,9-3.5,13c-1.6,4.1-4,7.5-7,10.3
		c-3,2.9-6.8,4.3-11.3,4.3c-4.6,0-8.3-1.4-11-4.5c-2.7-3-4.6-6.5-5.9-10.8c-1.3-4.3-2-8.7-2.4-13.3c-0.3-4.6-0.4-8.7-0.4-12.2
		c0-4.1,0.1-8.7,0.3-13.8c0.1-5.2,1-10,2.2-14.6c1.3-4.6,3.5-8.4,6.4-11.6c3-3.2,7.3-4.8,13-4.8c3.5,0,7,0.3,10.6,1.1
		c3.6,0.8,7,1.7,10,3.2L593,528.7L593,528.7z"/>
</g>
</svg>
