<?xml version="1.0" encoding="utf-8"?>
<!-- Generator: Adobe Illustrator 18.1.1, SVG Export Plug-In . SVG Version: 6.00 Build 0)  -->
<svg version="1.1" id="Layer_1" xmlns="http://www.w3.org/2000/svg" xmlns:xlink="http://www.w3.org/1999/xlink" x="0px" y="0px"
	 viewBox="0 0 540.7 202.2" enable-background="new 0 0 540.7 202.2" xml:space="preserve">
<path fill="#8CC43F" d="M142.3,97.4c4-2.1,9.8,1.5,8.9,6.1c0.2,5.2-8.1,7.7-10.8,3.2C138,103.9,139,99.2,142.3,97.4L142.3,97.4z"/>
<path fill="#8CC43F" d="M381.1,12.7c3.1,5.7,6.7,11.4,7.8,17.8c-0.3,6.3-4,11.9-7.7,16.8c-1.6-2.9-3.4-5.7-4.5-8.8
	c-1.5-4.5-0.1-9.3,1.5-13.6C379.7,21.1,380.4,16.9,381.1,12.7L381.1,12.7z"/>
<path fill="#7A5024" d="M389.7,43.9c7.5-5.1,16.1-9.2,25.3-9.6c1.6-0.3,2.7,0.8,3.4,2.1c-4.9,2-10.3,2.9-14.9,5.7
	c-12.2,5.9-21.1,17.6-24.3,30.6c-1,4.6-2.3,9.1-2.8,13.7c-1.7,12-0.9,24-1,36.1c0,12.6-0.1,25.1,0.1,37.7c0.1,2,0.5,4.1,1.4,5.9
	c1.7,2.7,4.6,4.2,6.8,6.4c0.9,4.1-1.9,7.3-4.7,9.8c-3.5-1-7.2-2.4-9.5-5.3c-3.2-3.8-6.6-8.2-6.4-13.5c-0.2-20.5,0-41-0.2-61.5
	c-0.8-9.1-1.5-19.1-7.9-26.2c-1.7-1.7,0.7-3.9,2.6-2.9c4.9,1.6,7,6.9,9.4,11c2.5-9.8,4.5-20.1,10.4-28.6
	C380.7,50.7,385.2,47.3,389.7,43.9L389.7,43.9z"/>
<path fill="#F7911E" d="M467.8,0.8c2.3-1.5,5.7-0.8,7.3,1.4c1,2.7-1.4,5.1-3,7.1c0.9,2.6,1.9,5.1,2.8,7.7c3.2,0.2,6.3,0.3,9.5,0.2
	c-0.6-4.5,2.3-8.6,5.7-11.3c2.1-1.5,4.3-3.1,6.8-3.6c1.1,3.6,2.1,7.4,1.4,11.1c-0.8,2.6-2.5,4.8-4.2,7c-1.5,0.6-2.6,1.7-3.1,3.3
	c2.2,3.9,4.2,7.9,5.7,12.1c9.1,30.7,18.1,61.4,27.2,92.2c2.8,9.8,6,19.5,8.9,29.3c2.6,8.1,5.6,16.1,7.7,24.3
	c-17.7,0.2-35.3,0-52.9,0.1c-5.1-40.9-10.2-81.9-15.4-122.8c-3.5-1.8-7.3-4.9-11.5-3.5c-3.2,2.3-5.3,6.1-9.2,7.4
	c-6.6,2.4-13.9-1.6-17.5-7.1c0.9-2.8,2-5.6,2.9-8.5c0.5-1.4,0.8-3.3,2.4-3.9c2.8-1.2,5.6-2.6,8.1-4.3c4.5-3.7,5-10.5,10.1-13.7
	c3.8-2.4,7.6-4.5,11.5-6.7c-0.6-2.4-1.2-4.8-1.8-7.2c-1.7-0.6-3.4-1.2-5.1-1.9C461.7,5.7,464.8,2.7,467.8,0.8L467.8,0.8z"/>
<path fill="#8CC43F" d="M360.9,35.9c3.2,1.4,6.5,2.6,9.8,3.8c3.4,1.7,5.9,4.6,8.3,7.5c-2.2,2.4-5.8,3.4-8.8,1.9
	C364.8,46.8,362.9,40.8,360.9,35.9L360.9,35.9z"/>
<path fill="#FFFFFF" d="M490.4,63.7c1.5-3.5,4.3-6.2,7-8.7c1.9,4.9,3.2,10.2,3.4,15.4c-2.8,1-5.9,0.3-8.4-1
	C491.4,67.6,490.6,65.7,490.4,63.7L490.4,63.7z"/>
<path fill="#FFFFFF" d="M484.1,68.4c1.6-1,2.9,0.8,3.6,2c0.8,1.2,2.3,3.2,0.6,4.4c-1.5,1.7-4.4,3.2-6.3,1.1
	C480.7,73.3,482.1,70.2,484.1,68.4L484.1,68.4z"/>
<path fill="#FFFFFF" d="M493.4,76.3c2.6-0.5,5.8-0.5,7.9,1.4c1.6,2.4,2.5,5.4,3,8.2c0.4,2.7-2.7,3.5-4.6,4.4c-1.7,0.6-4,2-5.6,0.4
	c-1.7-1.9-3.9-3.7-4.5-6.2C490.1,81.6,490.8,78.1,493.4,76.3L493.4,76.3z"/>
<path fill="#FFFFFF" d="M486.5,95.3c2.9-3.1,9.8,0.6,7.8,4.9c-0.8,1.8-1,4.8-3.4,5c-2-0.5-3.7-1.7-5.5-2.6
	C485.3,100.1,485.2,97.5,486.5,95.3L486.5,95.3z"/>
<path fill="#FFFFFF" d="M504.8,95.5c1-0.3,2.3-1,3.1,0.2c2.7,3.6,4.9,8.1,5,12.7c-0.8,2.9-3.3,5.2-5.7,6.7c-3,0.4-5.4-2.1-7.7-3.8
	c-1.1-1-2.7-2-2.6-3.8c0.4-3,1.5-5.8,2.6-8.5C500.4,96.9,502.8,96.2,504.8,95.5L504.8,95.5z"/>
<path fill="#8CC43F" d="M11.7,97c0.1-2.5,1.3-5.5,4-6.2c3.2-0.8,7.6,1,7.9,4.6c0.2,6.2,0,12.4,0.1,18.6c3.3,0,6.6-0.2,10-0.1
	c2.8,0,4.5,2.8,5.1,5.3c0.7,3.4-2.4,6.8-5.8,6.7c-3.1,0-6.2-0.2-9.3-0.1c0,10.4,0,20.8,0,31.2c0,3,0.7,6.5,3.6,8
	c3.1,0.9,6.5,0.2,9.6,1c4.8,2,4.4,10.3-0.9,11.4c-5.1,0.4-10.8,0.6-15.3-2.3c-5.4-3.5-9.1-9.8-9-16.3c0-11,0-21.9,0-32.9
	c-3.6,0-8.4,1.2-10.7-2.5c-2.5-3.4,0.1-7.6,3.1-9.6c2.5,0.3,5,0.4,7.5,0.5C11.8,108.4,11.6,102.7,11.7,97L11.7,97z"/>
<path fill="#7A5024" d="M250.4,97c0-2.6,1.3-5.5,4-6.2c3.2-0.7,7.6,1,7.8,4.6c0.2,6.2,0,12.4,0.1,18.6c3.3,0.1,6.7-0.2,10-0.2
	c2.5,0,4.2,2.4,4.8,4.5c1.4,3.5-1.9,7.6-5.6,7.4c-3.1-0.1-6.2-0.2-9.3-0.1c0,10.4,0,20.8,0,31.2c0,3,0.8,6.5,3.6,8
	c3.1,0.9,6.5,0.2,9.6,1c4.8,2.1,4.3,10.3-1,11.4c-5.2,0.3-10.9,0.6-15.4-2.4c-5.3-3.5-9.1-9.8-8.9-16.3c0-10.9,0-21.9,0-32.8
	c-3.5,0-7.9,1.2-10.4-2c-2.8-3.2-0.7-8.3,2.9-9.9c2.5,0,5,0.3,7.5,0.3C250.4,108.4,250.3,102.7,250.4,97L250.4,97z"/>
<path fill="#FFFFFF" d="M490.8,119c0.7-1.3,1.1-3.4,3-3.3c0.9-0.2,1.7,0.3,2.4,0.9c2.9,2.6,5.9,5.1,8.9,7.6c1,2.8-0.9,5.4-2.2,7.7
	c-0.8,1.6-2.7,2.5-4.4,1.8c-3-1.2-6.2-2-8.6-4.2C488.2,126.1,489.2,122.2,490.8,119L490.8,119z"/>
<path fill="#FFFFFF" d="M510.1,121.2c1.2-1.9,3.1-3.4,4.9-4.9c2.7,1.9,3.1,5.4,3.9,8.3c0.6,2.3,1.5,4.5,1.8,6.8
	c0.3,1.4-1.1,2.5-2.4,2.4c-2.6-0.3-4.8-2.2-5.9-4.5C511.2,126.8,510,124.1,510.1,121.2L510.1,121.2z"/>
<path fill="#8CC43F" d="M142.2,112.9c3.6-2.1,9.5,1,8.9,5.4c0,17.8,0,35.5,0,53.3c0.4,5-6.8,7.7-10.1,4.2c-1.8-1.7-2.1-4.3-2-6.7
	c0-16.4,0-32.8,0-49.2C139,117.3,139.7,114.2,142.2,112.9L142.2,112.9z"/>
<path fill="#8CC43F" d="M46.9,121.4c-1.8-4.2,2.6-9.4,7.1-7.9c4.1,1.3,4.9,6.1,5.9,9.7c2.9,9.6,6.1,19.2,9.3,28.7
	c3.6-11.3,7-22.6,10.9-33.7c0.6-2.5,2.7-4.5,5.3-4.7c3.1-0.5,5.6,2.2,6.4,5c3.3,11.2,7.1,22.3,10.7,33.5
	c3.9-11.5,7.2-23.2,11.3-34.7c1.2-3.6,6-5,8.9-2.6c2.2,1.3,3.2,4.1,2.2,6.4c-5.6,17.3-11.1,34.7-16.7,52.1c-0.7,3.4-4.8,5.3-7.9,3.9
	c-2.3-1-3.5-3.3-4.3-5.5c-3.2-10.9-7-21.6-10.4-32.4c-3.4,10.8-7,21.5-10.4,32.3c-0.4,1.2-0.8,2.5-1.4,3.6c-2.1,3.1-7.2,3.3-9.4,0.2
	c-1.7-2.5-2.3-5.5-3.2-8.4C56.5,151.7,51.7,136.6,46.9,121.4L46.9,121.4z"/>
<path fill="#8CC43F" d="M199.4,112.8c-14.9-1.4-29.6,9.2-33.6,23.5c-2.7,9.6-0.5,20.2,5.4,28.1c6.2,7.6,15.7,13.1,25.7,12.7
	c7.4,0.2,14.5-2.8,20.3-7.2c-0.2,3,0.3,6.1-0.7,8.9c-1.7,3.3-4.4,6.1-7.4,8.2c-8.3,5.3-20,4.4-27.2-2.3c-2.5-2-3.9-5-5.6-7.6
	c-2.5-3.9-9.2-2.6-10.5,1.7c-0.9,5.1,3.1,9.1,6.2,12.6c8,8.6,20.6,12.5,32.1,9.9c9.4-1.9,17.8-8,22.8-16.2c2.7-4.3,1.9-9.6,2-14.4
	c0.1-8.5-0.2-17,0.2-25.4C229.7,129.1,215.7,113.9,199.4,112.8z M198.5,165.2c-10.5,1.1-21.2-7.5-21.8-18.2
	c-1.1-9.7,6-19.8,15.5-21.9c11.3-2.8,24.3,5.9,24.9,17.7C218.4,153.7,209.6,165,198.5,165.2z"/>
<path fill="#7A5024" d="M351,156.9c-0.1-8.2,0.8-16.7-2.5-24.5c-4.9-10.8-15.6-19.3-27.7-19.8c-14.6-1.1-28.9,8.9-33.3,22.8
	c-2.4,8.1-1.4,17,2.2,24.6c5.5,9.9,16,17.5,27.6,17.4c7.7,0.5,15.3-2.3,21.3-7c0.3,2,0.6,4.2,2.3,5.6c3.1,3,9.6,1.1,10-3.4
	C351.1,167.3,350.9,162.1,351,156.9z M319.8,165.3c-10.4,0.8-20.8-7.7-21.4-18.3c-1-9.3,5.5-18.9,14.4-21.5
	c11.6-3.7,25.3,5.3,26,17.5C340.2,153.9,331,165.1,319.8,165.3z"/>
<path fill="#7A5024" d="M439.9,116.2c-7.7-4.2-17.3-4.8-25.5-1.8c-6.3,2-11.6,6.3-15.7,11.4c-6.6,8.4-8,20.3-4.4,30.2
	c4.8,13.8,19.8,23.6,34.5,21c5.1-1.1,11.6-1.6,14.5-6.5c2.6-4.2-1.5-9.8-6.3-8.8c-4.8,1.5-9.6,4.2-14.9,3.1c-7.1-0.7-13-5.7-16-12
	c15.3-0.1,30.5,0,45.8-0.1c2.7,0,4.7-2.5,5.1-5C458.6,135,451,122.3,439.9,116.2z M405.1,140.6c2-6.1,6.1-11.8,12.2-14.2
	c6.3-2.3,13.8-1.8,19.2,2.4c4.2,2.7,6.5,7.4,8.3,11.8C431.5,140.7,418.3,140.7,405.1,140.6z"/>
<path fill="#FFFFFF" d="M507.2,134.8c1.3-0.8,3.1-0.4,4.2,0.6c2,1.9,3.7,4,5.5,6.1c1.9,2.2,0.4,5.4-1.5,7.2c-1.6,1.6-3.9,4-6.4,2.8
	c-3.3-2.4-5.9-5.8-7.7-9.4C502.7,139.3,504.6,136.6,507.2,134.8L507.2,134.8z"/>
<path fill="#FFFFFF" d="M517.7,157.5c1.8-2.1,4.2-4.4,7.1-4.4c1.7,4.3,3.3,8.6,5,12.8c0.5,1.4,1.2,2.8,1.2,4.3
	c-0.1,1.3-1.5,1.7-2.3,2.5c-3.3-0.5-6.7-0.2-9.9-0.8c-2.3-0.6-1.7-3.4-1.8-5.2C517.2,163.7,516.1,160.3,517.7,157.5L517.7,157.5z"/>
<path fill="#FFFFFF" d="M500.2,156.2c3.2-0.8,5.9,1.3,8.4,3c1.7,1.1,1.6,3.5,0.7,5.1c-1.3,2.4-3.5,4.6-6.3,4.9
	c-2.1-0.7-3.6-2.5-5.3-3.8c-0.3-0.8-0.5-1.5-0.8-2.2C497.9,160.7,499.1,158.4,500.2,156.2L500.2,156.2z"/>
<path fill="#FFFFFF" d="M489.6,40.3l0.5-0.7c0.5,0,1.4-0.1,1.9-0.1c2.5,2.8,3.4,6.7,4.1,10.3c0.6,2.2-0.7,5.4-3.2,5.4
	c-2.3-0.3-4.4-1.8-5.6-3.7C485.6,47.7,487.8,43.7,489.6,40.3L489.6,40.3z"/>
</svg>
