<?xml version="1.0" encoding="utf-8"?>
<!-- Generator: Adobe Illustrator 18.1.1, SVG Export Plug-In . SVG Version: 6.00 Build 0)  -->
<svg version="1.1" id="Layer_1" xmlns="http://www.w3.org/2000/svg" xmlns:xlink="http://www.w3.org/1999/xlink" x="0px" y="0px"
	 viewBox="-99 46.2 53 53.8" enable-background="new -99 46.2 53 53.8" xml:space="preserve">
<path fill="#FFFFFF" d="M-72.5,48.3c-13.6,0-24.6,11-24.6,24.6c0,13.6,11,24.6,24.6,24.6s24.6-11,24.6-24.6
	C-47.8,59.3-58.9,48.3-72.5,48.3z M-65.9,72.8h-4.3c0,6.8,0,15.2,0,15.2h-6.3c0,0,0-8.3,0-15.2h-3v-5.4h3v-3.5
	c0-2.5,1.2-6.4,6.4-6.4l4.7,0v5.2c0,0-2.8,0-3.4,0c-0.6,0-1.3,0.3-1.3,1.5v3.2h4.8L-65.9,72.8z"/>
</svg>
