<?xml version="1.0" encoding="utf-8"?>
<!-- Generator: Adobe Illustrator 18.1.1, SVG Export Plug-In . SVG Version: 6.00 Build 0)  -->
<svg version="1.1" id="Layer_1" xmlns="http://www.w3.org/2000/svg" xmlns:xlink="http://www.w3.org/1999/xlink" x="0px" y="0px"
	 viewBox="-70 20.7 110.7 105.3" enable-background="new -70 20.7 110.7 105.3" xml:space="preserve">
<g>
	<path fill="#FFFFFF" d="M23.6,33.9c-3.4-1.9-6.7-3-9.9-3.4c-3.4-0.4-15.8-0.6-22.2-0.6h-11.2c-21.1,0-33.2,3.5-40.7,11.5
		c-2.5,2.6-3.2,6.4-2.6,8.6c0.6,2.1,2.6,5.5,6.6,4.5c2.8-0.7,4.3-2.4,4-4.9c-0.4-2.8-2.2-3.1-2.7-4.7c-1-3.5,1.6-8.2,14.3-11.1
		c10.2-2.3,15.4-0.8,17.2,2.3c0.9,1.6,0.5,4.7-0.1,7.2L-29,60.5l-13,43c-1.4,4.5-2.4,7.4-3.1,8.8c-0.7,1.4-2.1,2.7-4.1,3.7
		c-1.9,1-4.2,1.5-6.9,1.5l-0.6,2h34.9l0.6-2h-1.4c-2.8,0-5.1-0.6-7-1.6c-1.9-1.1-2.9-2.9-2.9-5.2c0-1,0.6-3.7,2-8.1l7.2-24.8h14.1
		c17.2,0,28.5-2.8,34.2-7.6c6.8-5.8,9-13,9-19.2c0-3.4-0.9-6.6-2.7-9.6C29.5,38.2,26.9,35.8,23.6,33.9z M17.1,65.4
		c-3.3,4.4-7.1,7.3-11.4,8.5c-4.3,1.2-9.9,1.8-16.6,1.8c-4,0-11.6-1-10.2-6.1L-9.3,32H1.4c5,0,8.8,0.3,11.4,1
		c2.6,0.7,4.9,2.4,6.9,5.1c1.9,2.7,2.9,6.2,2.9,10.3C22.5,53.7,21,60.1,17.1,65.4z"/>
</g>
</svg>
