<?xml version="1.0" encoding="utf-8"?>
<!-- Generator: Adobe Illustrator 18.1.1, SVG Export Plug-In . SVG Version: 6.00 Build 0)  -->
<svg version="1.1" id="Layer_1" xmlns="http://www.w3.org/2000/svg" xmlns:xlink="http://www.w3.org/1999/xlink" x="0px" y="0px"
	 viewBox="0 0 948.3 99.6" enable-background="new 0 0 948.3 99.6" xml:space="preserve">
<path fill="#FFFFFF" d="M919.2,91c0.2-0.2,0.4-0.4,0.7-0.6C919.6,90.6,919.4,90.8,919.2,91z"/>
<path fill="#FFFFFF" d="M923.2,87.2c0.1-0.1,0.2-0.2,0.3-0.3C923.3,87,923.2,87.1,923.2,87.2z"/>
<path fill="#FFFFFF" d="M921.7,88.7c-0.3,0.3-0.6,0.5-0.9,0.8C921.2,89.2,921.4,89,921.7,88.7z"/>
<g opacity="0.2">
	<path fill="#FFFFFF" d="M402.2,21.7L383.7,70c-1.3,3.5-2.4,6.4-3.1,8.8c-1.1,3.3-1.6,5.5-1.6,6.7c0,3.3,1,5.6,2.9,6.9
		c0.3,0.2,0.6,0.4,0.9,0.5c-1.2-1.4-1.8-3.3-1.8-5.9c0-2.1,1.5-7.1,4.7-15.4L402.9,27L402.2,21.7L402.2,21.7z"/>
	<path fill="#FFFFFF" d="M130.9,92.6c0.3,0.3,0.7,0.5,1.1,0.7c-2.5-2.2-4.3-4.9-5.4-8c-1.2-3.5-1.8-8.5-1.7-14.8
		c0.1-7.7,2.2-17,6.1-27.6c3.9-10.6,8.9-19,14.9-25c6-6,12.4-9.1,19-9.1c3.8,0,7.2,1,10,2.8c-3.3-2.9-7.3-4.4-12.1-4.4
		c-6.6,0-13,3-19,9.1c-5.9,6-10.9,14.4-14.9,25c-3.9,10.6-6,19.9-6.1,27.6c-0.1,6.4,0.4,11.3,1.7,14.8
		C125.7,87.3,127.9,90.2,130.9,92.6z"/>
	<path fill="#FFFFFF" d="M181.2,11.5c2.4,2.1,4.6,4.8,6.6,8.1c3.3,5.7,4.9,12.7,4.8,20.9c-0.3,14.2-5.7,27.6-16.2,39.6
		c-10.4,12-22,17.9-34.1,17.9c-6.7,0-12.5-1.7-17.5-5.2c5.4,4.5,11.9,6.7,19.6,6.7c12.1,0,23.7-5.9,34.1-17.9
		c10.5-12,15.9-25.3,16.2-39.6c0.1-8.2-1.5-15.2-4.8-20.9C187.3,16.9,184.4,13.7,181.2,11.5z"/>
	<path fill="#FFFFFF" d="M224.5,92.9c0.2,0.1,0.5,0.3,0.7,0.4c-0.9-1.1-1.4-2.4-1.4-4c0-1,0.6-3.7,2-8l16.8-55.5
		c1.8-5.8,3-9.4,3.9-10.8c0.9-1.4,2.2-2.6,4-3.4c1.8-0.8,4.2-1.2,7.3-1.2h2l0.6-2h-2.6l-0.1,0.4h-2c-3.1,0-5.5,0.4-7.3,1.2
		c-1.8,0.8-3.1,1.9-4,3.4c-0.9,1.4-2.1,4.9-3.9,10.8l-16.8,55.5c-1.3,4.4-2,7-2,8C221.7,89.9,222.7,91.7,224.5,92.9z"/>
	<path fill="#FFFFFF" d="M231.3,11.4c-1.1-1.5-3.5-2.4-6.9-2.6l-0.5,1.5h1.1C227.7,10.4,229.8,10.7,231.3,11.4z"/>
	<path fill="#FFFFFF" d="M271.9,79.8l-5.4,16.5h-68.2l-0.5,1.6h70.8l7.1-21.7h-1.8C273.3,77.4,272.6,78.6,271.9,79.8z"/>
	<path fill="#FFFFFF" d="M373.9,8.3h-2.6l-0.1,0.4c-5.8,0.1-9.9,1.1-15.8,8.5l-2.3,2.9l-25.7,32.4l-1.3,1.7l-5.3,17
		c-3.4,10.9-4.2,14.3-4.3,17.2c0,2.5,1,3.9,2.9,4.7c-0.5-0.8-0.8-1.8-0.8-3.1c0.1-2.9,0.9-6.3,4.3-17.2l5.3-17l29.4-36.9
		c5.9-7.4,10.1-8.3,15.8-8.5L373.9,8.3z"/>
	<path fill="#FFFFFF" d="M297,9l-0.4,1.1c2.4,0.4,4.1,0.8,5.4,1.4C301,10.3,299.5,9.5,297,9z"/>
	<polygon fill="#FFFFFF" points="327.7,96.4 293.2,96.4 292.7,97.9 329.8,97.9 330.4,96 327.9,95.8 	"/>
	<path fill="#FFFFFF" d="M352.6,11.6c-1.1-1.7-4-2.3-6.3-2.5L345.4,9l-0.4,1.3l3.3,0.3C349.8,10.8,351.3,11.1,352.6,11.6z"/>
	<path fill="#FFFFFF" d="M325.3,51.2c0,0,0.5-0.6,1.3-1.5l-3.7-14.1c-3.2-11.9-4.6-17.8-4.6-19.9c0.1-3.5,2.1-4.6,10.1-5.4l0.6-2
		h-2.5l-0.1,0.4c-7.9,0.8-10,2-10.1,5.4c0,2.1,1.4,7.9,4.6,19.9L325.3,51.2z"/>
	<path fill="#FFFFFF" d="M496.8,8.3h-2.6l-0.1,0.4c-4.5,0-7.4,0.4-8.9,1.2c-1.6,0.8-2.8,2-3.5,3.5c-0.7,1.5-1.6,4.6-2.7,9.5
		l-14,56.4c-1,4.1-1.6,6.7-1.6,7.8c0,2.5,1.1,4.4,3.2,5.5c0.1,0,0.2,0.1,0.3,0.1c-0.9-1.1-1.4-2.4-1.4-4.1c0-1.1,0.5-3.6,1.6-7.8
		l14-56.4c1.1-4.9,2-8,2.7-9.5c0.7-1.5,1.9-2.7,3.5-3.5c1.5-0.8,4.5-1.2,8.9-1.2L496.8,8.3z"/>
	<polygon fill="#FFFFFF" points="470.4,15.3 470.6,14.6 422.1,85.3 414.7,96.1 413.2,96.2 413.4,97.9 416.8,97.7 468.7,21.9 	"/>
	<path fill="#FFFFFF" d="M474.6,95.9l-0.2,0.5h-34.2l-0.5,1.6h36.8l0.6-2h-1.4C475.4,95.9,475,95.9,474.6,95.9z"/>
	<path fill="#FFFFFF" d="M389.4,96.4h-26.8l-0.5,1.6h29.4l0.6-2c-0.9,0-1.7-0.1-2.5-0.2L389.4,96.4z"/>
	<path fill="#FFFFFF" d="M400.3,11.1c-0.2-0.3-0.4-0.5-0.7-0.8c-1.2-1.1-3.5-1.6-7.1-1.6l-0.4,0l-0.5,1.6l2.9,0
		C397.1,10.3,399,10.6,400.3,11.1z"/>
	<polygon fill="#FFFFFF" points="421.7,82 412.5,8.3 410.6,8.3 420.1,84.4 	"/>
	<path fill="#FFFFFF" d="M518.4,95.8l-0.2,0.6h-28.1l-0.5,1.6h30.7l0.6-2l-1.5,0C519.1,95.9,518.8,95.8,518.4,95.8z"/>
	<path fill="#FFFFFF" d="M569.1,96.4h-32.9l-0.5,1.6h35.5l0.6-2.1c-0.9,0-1.7-0.1-2.5-0.2L569.1,96.4z"/>
	<path fill="#FFFFFF" d="M561.8,92.6c0.2,0.1,0.4,0.2,0.7,0.3c-0.9-1.2-1.4-2.9-1.4-5.1l0.4-8.2l3.1-72.9h-2.2l-3.1,71.3l-0.4,8.2
		C558.9,89.4,559.9,91.5,561.8,92.6z"/>
	<polygon fill="#FFFFFF" points="526.5,60 550.1,24.7 550.3,20.8 550.3,19.7 523.4,60 524,60 	"/>
	<path fill="#FFFFFF" d="M548.4,62.1h-25.8h-0.6L513.6,75c-1.8,2.8-3.1,4.8-4,6.3c-0.5,0.8-0.8,1.4-1,1.8c-0.6,1.2-0.9,2.5-0.9,3.8
		c0,2.9,1.1,4.9,3.5,6.1c-1-1.2-1.5-2.7-1.5-4.5c0-1.3,0.3-2.6,0.9-3.8c0.6-1.2,2.2-3.8,5-8.1l8.4-12.9h24.2L548.4,62.1z"/>
	<path fill="#FFFFFF" d="M634.6,95.9l-0.1,0.5h-35.2l-0.5,1.6h37.7l0.6-2h-1.7C635.2,95.9,634.9,95.9,634.6,95.9z"/>
	<path fill="#FFFFFF" d="M601.9,23.2c0-0.6-0.2-1.4-0.6-2.6c-0.5-1.4-0.8-2.4-0.8-3.2c0-2.1,1.5-3.7,4.6-4.7
		c5.2-1.7,15.4-1.8,29.9-0.6l0.4-1.4l-0.6-0.1c-15.5-1.4-26.2-1.4-31.7,0.4c-3,1-4.6,2.6-4.6,4.7c0,0.8,0.3,1.8,0.8,3.2
		c0.4,1.2,0.6,2.1,0.6,2.6c0,1.1-0.4,2-1.2,2.7c-0.8,0.8-1.8,1.1-3,1.1c-0.6,0-1.1-0.1-1.6-0.2c0,0,0,0,0,0c0.9,1.2,2,1.8,3.6,1.8
		c1.2,0,2.2-0.4,3-1.1C601.5,25.2,601.9,24.3,601.9,23.2z"/>
	<path fill="#FFFFFF" d="M688.1,8.3c0.6-2.7-0.3-4.1-2.1-4.4c0.3,0.7,0.3,1.6,0.1,2.8c-0.9,4.4-6.5,6-16.4,6
		c-4.9,0-12.6-0.4-23.1-1.3l-0.4,0l-20.6,67.9c-1.3,4.3-2,7-2,8.1c0,2.4,1.1,4.2,3.2,5.3c0,0,0.1,0,0.1,0.1c-0.8-1-1.3-2.3-1.3-3.8
		c0-1.1,0.6-3.8,2-8.1L648.1,13l0.4,0c10.4,0.9,18.2,1.3,23.1,1.3C681.5,14.4,687.1,12.7,688.1,8.3z"/>
	<path fill="#FFFFFF" d="M722.8,25.7c1.8-5.8,3-9.4,3.8-10.7c0.8-1.4,2.1-2.6,3.9-3.4c1.7-0.8,4.1-1.2,7.2-1.2l0.6-2h-2.6l-0.1,0.4
		c-3.1,0-5.6,0.4-7.2,1.2c-1.8,0.8-3.1,2-3.9,3.4c-0.8,1.4-2.1,4.9-3.8,10.7l-7.4,24.1h2.6L722.8,25.7z"/>
	<path fill="#FFFFFF" d="M766.7,96.4h-32l-0.5,1.6h34.6l0.6-2c-0.9,0-1.7-0.1-2.5-0.2L766.7,96.4z"/>
	<path fill="#FFFFFF" d="M710.9,96.4h-31.2l-0.5,1.6H713l0.6-2c-0.9,0-1.7-0.1-2.5-0.2L710.9,96.4z"/>
	<path fill="#FFFFFF" d="M756.9,51h-44.4l-8.6,28.4c-1.4,4.4-2,7-2,8.2c0,2.6,1.1,4.4,3.4,5.5c-0.9-1-1.3-2.4-1.3-4
		c0-1.1,0.7-3.8,2-8.2l8.6-28.4h41.8L756.9,51z"/>
	<path fill="#FFFFFF" d="M709.8,9.9c-1-0.5-2.6-0.9-4.7-1l-0.4,1.5c3.1,0,5.3,0.4,6.8,1C711,10.8,710.5,10.3,709.8,9.9z"/>
	<path fill="#FFFFFF" d="M790,8.8c-2.5,0-4.7,0.4-6.4,1.2c-1.9,0.8-3.2,2-4,3.4c-0.8,1.4-1.9,4.8-3.6,10.4l-16.8,55.6
		c-1.3,4.3-2,7-2,8.1c0,2.6,1.2,4.4,3.4,5.5c-0.9-1-1.3-2.4-1.3-4c0-1.1,0.6-3.8,2-8.1l16.8-55.6c1.7-5.6,2.9-9,3.6-10.4
		c0.8-1.5,2.1-2.6,4-3.4c1.7-0.8,3.9-1.2,6.4-1.2l0.6-2h-2.5L790,8.8z"/>
	<path fill="#FFFFFF" d="M761,9l-0.4,1.4c2.6,0.1,4.6,0.4,6.1,1.1C765.7,10.1,763.8,9.3,761,9z"/>
	<path fill="#FFFFFF" d="M853.9,8.8h-1.5c-2.2,0-4.2,0.4-6,1.2c-1.8,0.8-3.2,1.9-4,3.4c-0.8,1.4-2,4.8-3.7,10.5l-16.9,55.6
		c-1.3,4.3-2,7-2,8.2c0,2.4,1.1,4.2,3.1,5.2c0.1,0,0.1,0.1,0.2,0.1c-0.8-1-1.2-2.3-1.2-3.8c0-1.2,0.6-3.9,2-8.2l16.9-55.6
		c1.7-5.7,2.9-9.1,3.7-10.5c0.8-1.4,2.1-2.6,4-3.4c1.8-0.8,3.8-1.2,6-1.2h1.5l0.6-2H854L853.9,8.8z"/>
	<path fill="#FFFFFF" d="M829.4,11.4c-1.2-1.6-3.7-2.5-7.4-2.6l-0.5,1.6h1.7C825.8,10.4,827.9,10.7,829.4,11.4z"/>
	<path fill="#FFFFFF" d="M831.2,95.9l-0.1,0.5h-34.6l-0.5,1.6h37.1l0.6-2h-1.9C831.6,95.9,831.4,95.9,831.2,95.9z"/>
	<path fill="#FFFFFF" d="M946,10.5c-0.1,0.5-0.3,0.9-0.4,1.3l-4.7,20.7c0,0.2,0,0.3,0,0.5c0,0.9,0,1.9-0.1,2.9h1.8l5.8-25.4H946z"/>
	<path fill="#FFFFFF" d="M924.9,85.2c-0.5,0.6-1,1.2-1.5,1.7c-0.1,0.1-0.2,0.2-0.3,0.3c-0.4,0.4-0.7,0.8-1.1,1.2
		c-0.1,0.1-0.2,0.2-0.3,0.3c-0.3,0.3-0.6,0.5-0.9,0.8c-0.3,0.3-0.7,0.6-1,0.9c-0.2,0.2-0.4,0.4-0.7,0.6c-7.1,5.8-13.8,7.1-20.7,7.1
		c-6.5,0-12.1-1.6-16.8-4.9c5.1,4.2,11.4,6.4,18.9,6.4c7.8,0,15.5-1.6,23.6-9.7c8.1-8,11.9-19.2,11.9-19.2h-2.3
		C931.1,76.5,928.2,81.3,924.9,85.2z"/>
	<path fill="#FFFFFF" d="M888.9,93.1c-1-0.9-2-1.9-2.9-3.1c-3.7-5-5.6-11.5-5.6-19.3c0-8.8,2.2-19.1,6.6-30.5
		c4.4-11.5,9.4-19.7,15.1-24.5c5.7-4.8,11.9-7.2,18.5-7.2c4.2,0,7.8,1,10.8,3c-3.5-3.1-7.8-4.6-12.9-4.6c-6.6,0-12.8,2.4-18.5,7.2
		c-5.7,4.8-10.7,13-15.1,24.5c-4.3,11.4-6.6,21.7-6.6,30.5c0,7.8,1.9,14.3,5.6,19.3C885.4,90.3,887.1,91.9,888.9,93.1z"/>
	<path fill="#FFFFFF" d="M15.1,28c-0.4-2.8-2.2-3.1-2.7-4.7c-1-3.5,1.6-8.2,14.3-11.1c7.1-1.6,11.8-1.4,14.6,0
		c-2.1-2.6-7.3-3.7-16.7-1.6c-12.7,2.9-15.3,7.6-14.3,11.1c0.5,1.6,2.3,1.9,2.7,4.7c0.4,2.5-1.2,4.2-4,4.9c-1.2,0.3-2.3,0.2-3.1-0.2
		c1.1,1.3,2.8,2.3,5.2,1.8C13.9,32.3,15.4,30.5,15.1,28z"/>
	<path fill="#FFFFFF" d="M92.8,13.3c1.6,1.4,3,3,4,4.8c1.8,3,2.7,6.3,2.7,9.6c0,6.2-2.3,13.4-9,19.2c-5.6,4.9-17,7.6-34.2,7.6H42.2
		l-7.2,24.8c-1.3,4.4-2,7.1-2,8.1c0,2.3,1,4.1,2.9,5.2c0.2,0.1,0.4,0.2,0.5,0.3c-0.9-1-1.3-2.3-1.3-3.9c0-1,0.6-3.7,2-8.1l7.2-24.8
		h14.1c17.2,0,28.5-2.8,34.2-7.6c6.8-5.8,9-13,9-19.2c0-3.4-0.9-6.6-2.7-9.6C97.4,17.1,95.3,15,92.8,13.3z"/>
	<path fill="#FFFFFF" d="M46.9,51.2c-0.6-0.8-0.8-1.9-0.5-3.2l11.8-37.6H69c5,0,8.8,0.3,11.4,1c0.9,0.2,1.9,0.6,2.7,1.1
		c-1.4-1.4-3-2.3-4.8-2.7c-2.5-0.6-6.4-1-11.4-1H56.2L44.4,46.4C43.7,48.8,45,50.3,46.9,51.2z"/>
	<path fill="#FFFFFF" d="M43.8,95.9l-0.2,0.5H11.2l-0.5,1.6h34.9l0.6-2h-1.4C44.5,95.9,44.1,95.9,43.8,95.9z"/>
</g>
<g>
	<path fill="#FFFFFF" d="M173.7,5.9c-4.6-1.9-9-3.1-12.8-3.1c-7.3,0-15.1,2.6-23,7.7c-8,5.1-14.8,12.6-20.2,22.2
		c-5.4,9.7-8.3,18.8-8.4,27.1c-0.2,11.4,2.7,20.3,8.5,26.5c5.9,6.2,13.4,9.3,22.3,9.3c12.1,0,23.7-5.9,34.1-17.9
		c10.5-12,15.9-25.3,16.2-39.6c0.1-8.2-1.5-15.2-4.8-20.9C182.3,11.6,178.3,7.8,173.7,5.9z M173.6,58.1
		c-3.9,11.1-8.8,19.9-14.7,26.1c-5.9,6.3-12.3,9.5-19.1,9.5c-4.3,0-8.1-1.2-11.1-3.5c-3-2.3-5.2-5.3-6.4-8.8
		c-1.2-3.5-1.8-8.5-1.7-14.8c0.1-7.7,2.2-17,6.1-27.6c3.9-10.6,8.9-19,14.9-25c6-6,12.4-9.1,19-9.1c5.7,0,10.4,2.1,13.9,6.2
		c3.5,4.1,5.3,10.3,5.1,18.4C179.5,37.4,177.5,47,173.6,58.1z"/>
	<path fill="#FFFFFF" d="M259.7,85.3c-4.8,4.6-12,6.9-21.4,6.9h-4.5c-5.9,0-9.6-0.6-11.4-1.7c-1.8-1.2-2.7-2.9-2.7-5.2
		c0-1,0.6-3.7,2-8l16.8-55.5c1.8-5.8,3-9.4,3.9-10.8c0.9-1.4,2.2-2.6,4-3.4c1.8-0.8,4.2-1.2,7.3-1.2h2l0.6-2h-35.9l-0.6,2h1.1
		c6.1,0,9.2,1.8,9.2,5.3c0,1.2-0.7,4-2.1,8.6L210.4,78c-1.4,4.5-2.4,7.4-3.1,8.7c-0.7,1.4-2.1,2.7-4.1,3.7c-2,1-4.4,1.6-7.3,1.6
		h-1.7l-0.6,2h70.8l7.1-21.7h-1.8C267.7,76.5,264.4,80.9,259.7,85.3z"/>
	<path fill="#FFFFFF" d="M369.7,4.4h-28.3l-0.6,2l3.3,0.3c3.1,0.3,6.9,1.1,6.9,4.4c0,1.2-1,3.2-2.9,6.3
		c-2.2,3.6-24.9,31.4-24.9,31.4l-4.6-17.2c-3.2-11.9-4.6-17.8-4.6-19.9c0.1-3.5,2.1-4.6,10.1-5.4l0.6-2H293l-0.6,1.8
		c7.4,1.1,8.3,2.5,10.2,9.6l9.8,36.9l0,0.1L304,80.6c-2.7,9.1-6.1,10.9-15,11.4l-0.6,1.9h37.1l0.6-2l-4.3-0.4
		c-4.9-0.4-7.7-1.4-7.7-5.6c0.1-2.9,0.9-6.3,4.3-17.2l5.3-17l29.4-36.9c5.9-7.4,10.1-8.3,15.8-8.5L369.7,4.4z"/>
	<path fill="#FFFFFF" d="M492.6,4.4h-21.7l-53,77.6l-9.7-77.6H388l-0.6,2l2.9,0c3.6,0,5.9,0.5,7.1,1.6c1.2,1.1,1.8,2.6,1.8,4.6
		c0,1.5-1,4.9-3,10.1l-16.9,44.5c-2.9,7.6-5.1,12.8-6.6,15.6c-1.5,2.9-3.5,5.1-5.9,6.7c-2.3,1.5-5.2,2.3-8.4,2.5l-0.6,2h29.4l0.6-2
		c-3.9-0.1-6.3-0.8-8.1-2c-1.9-1.3-2.9-3.6-2.9-6.9c0-2.1,1.5-7.1,4.7-15.4l18.5-48.3l9.1,74.7l3.5-0.3l55.8-81.5l-16.5,65.2
		c-1.2,4.8-2.2,7.9-3,9.3c-0.8,1.5-2.2,2.8-4.2,3.8c-2,1-4.5,1.5-7.4,1.5h-1.2l-0.6,2h36.8l0.6-2h-1.4c-2.6,0-5-0.6-7-1.7
		c-2.1-1.2-3.2-3-3.2-5.5c0-1.1,0.5-3.6,1.6-7.8l14-56.4c1.1-4.9,2-8,2.7-9.5c0.7-1.5,1.9-2.7,3.5-3.5c1.5-0.8,4.5-1.2,8.9-1.2
		L492.6,4.4z"/>
	<path fill="#FFFFFF" d="M556.7,83.9l0.4-8.2l3.1-72.9h-4.8l-46,68.7c-5.4,8.1-9.6,13.5-12.5,16c-2.9,2.5-6.5,4-10.8,4.4l-0.6,2.1
		h30.7l0.6-2l-1.5,0c-6.7-0.2-9.6-2.7-9.6-7.3c0-1.3,0.3-2.6,0.9-3.8c0.6-1.2,2.2-3.8,5-8.1l8.4-12.9h26.3l-0.7,15.2
		c-0.2,4.9-0.5,8.3-0.8,10.1c-0.3,1.9-1.4,3.5-3.2,4.9c-1.7,1.3-4.8,2-9.5,2.1l-0.6,2h35.5l0.6-2.1c-3.6-0.2-6.2-0.7-7.9-1.7
		C557.7,89.2,556.7,87.1,556.7,83.9z M546.4,57.7h-25.1l26.9-40.4L546.4,57.7z"/>
	<path fill="#FFFFFF" d="M683.8,4.4c0.6-2.8-0.4-4.2-2.3-4.4c-2-0.2-3.7,0.8-4.2,3.2c-0.6,2.9-3.6,4.4-8.8,4.4
		c-5.2,0-13.1-0.5-23.5-1.3c-14.5-1.2-24.5-1.8-29.6-1.8c-10,0-17.1,1.3-21,3.9c-3.9,2.5-5.8,5.5-5.8,8.9c0,1.5,0.5,2.9,1.3,4.2
		c0.9,1.2,2,1.8,3.6,1.8c1.2,0,2.2-0.4,3-1.1c0.8-0.8,1.2-1.7,1.2-2.7c0-0.6-0.2-1.4-0.6-2.6c-0.5-1.4-0.8-2.4-0.8-3.2
		c0-2.1,1.5-3.7,4.6-4.7c5.5-1.8,16.2-1.8,31.7-0.4l0.6,0.1l-21,69.1c-1.5,4.8-2.6,7.9-3.5,9.3c-0.9,1.5-2.4,2.8-4.4,3.8
		c-2,1-4.5,1.5-7.4,1.5h-1.6l-0.6,2h37.7l0.6-2h-1.7c-2.5,0-4.8-0.5-6.8-1.6c-2.1-1.1-3.2-2.9-3.2-5.3c0-1.1,0.6-3.8,2-8.1
		l20.6-67.9l0.4,0c10.4,0.9,18.2,1.3,23.1,1.3C677.3,10.5,682.9,8.8,683.8,4.4z"/>
	<path fill="#FFFFFF" d="M756.3,6.5c6,0.1,9,1.9,9,5.3c0,1.2-0.7,4-2.1,8.5l-7.7,25.6h-44.4l7.4-24.1c1.8-5.8,3-9.4,3.8-10.7
		c0.8-1.4,2.1-2.6,3.9-3.4c1.7-0.8,4.1-1.2,7.2-1.2l0.6-2H701l-0.6,2c3.4,0,5.7,0.4,7.2,1.2c1.6,0.8,2.5,2.2,2.5,4.1
		c0,1.2-0.7,4-2,8.6L690.5,78c-1.4,4.7-2.5,7.7-3.3,9.1c-0.8,1.4-2.3,2.6-4.3,3.6c-1.9,0.9-4.4,1.3-7.2,1.4l-0.6,2h33.7l0.6-2
		c-6.4-0.2-9.6-2.4-9.6-6.8c0-1.1,0.7-3.8,2-8.2l8.6-28.4h44.4l-8.8,28.8c-1.5,4.7-2.5,7.7-3.4,9.2c-0.8,1.5-2.3,2.8-4.4,3.8
		c-2,1-4.6,1.5-7.7,1.6l-0.6,2h34.6l0.6-2c-6.7-0.1-10.1-2.5-10.1-6.9c0-1.1,0.6-3.8,2-8.1l16.8-55.6c1.7-5.6,2.9-9,3.6-10.4
		c0.8-1.5,2.1-2.6,4-3.4c1.7-0.8,3.9-1.2,6.4-1.2l0.6-2h-31.5L756.3,6.5z"/>
	<path fill="#FFFFFF" d="M817.2,6.5h1.7c6.1,0,9.2,1.8,9.2,5.3c0,1.2-0.7,4-2.1,8.5L808.5,78c-1.4,4.5-2.4,7.4-3.1,8.8
		c-0.7,1.4-2.1,2.7-4.1,3.7c-2,1-4.4,1.6-7.3,1.6h-1.7l-0.6,2h37.1l0.6-2h-1.9c-2.5,0-4.8-0.5-6.8-1.6c-2.1-1.1-3.1-2.9-3.1-5.2
		c0-1.2,0.6-3.9,2-8.2l16.9-55.6c1.7-5.7,2.9-9.1,3.7-10.5c0.8-1.4,2.1-2.6,4-3.4c1.8-0.8,3.8-1.2,6-1.2h1.5l0.6-2h-34.5L817.2,6.5z
		"/>
	<path fill="#FFFFFF" d="M941.7,6.6c-2.8,9.8-5.2,6.8-5.5,6.3c-1.7-2.8-4.3-5-6.9-6.6c-3.6-2.3-9.1-3.5-14.4-3.5
		c-12.8,0-24.4,6.3-34.6,18.8c-10.2,12.5-15.3,26-15.3,40.1c0,8.8,2.8,16.7,8.4,23.6c5.6,6.9,13.3,10.4,22.8,10.4
		c7.8,0,15.5-1.6,23.6-9.7c8.1-8,11.9-19.2,11.9-19.2h-2.3c-8.1,17.8-19.6,26.9-32.2,26.9c-6.5,0-11.7-2.6-15.5-7.6
		c-3.7-5-5.6-11.5-5.6-19.3c0-8.8,2.2-19.1,6.6-30.5c4.4-11.5,9.4-19.7,15.1-24.5c5.7-4.8,11.9-7.2,18.5-7.2c6.1,0,11,2.2,14.7,6.4
		c3.7,4.2,5.5,10.3,5.5,18.1c0,0.9,0,1.9-0.1,2.9h1.8l5.8-25.4H941.7z"/>
	<path fill="#FFFFFF" d="M86.9,8.4c-3.4-1.9-6.7-3-9.9-3.4c-3.4-0.4-15.8-0.6-22.2-0.6H43.5c-21.1,0-33.2,3.5-40.7,11.5
		c-2.5,2.6-3.2,6.4-2.6,8.6C0.8,26.5,2.8,30,6.8,29c2.8-0.7,4.3-2.4,4-4.9c-0.4-2.8-2.2-3.1-2.7-4.7c-1-3.5,1.6-8.2,14.3-11.1
		c10.2-2.3,15.4-0.8,17.2,2.3c0.9,1.6,0.5,4.7-0.1,7.2L34.3,35l-13,43c-1.4,4.5-2.4,7.4-3.1,8.8c-0.7,1.4-2.1,2.7-4.1,3.7
		c-1.9,1-4.2,1.5-6.9,1.5l-0.6,2h34.9l0.6-2h-1.4c-2.8,0-5.1-0.6-7-1.6c-1.9-1.1-2.9-2.9-2.9-5.2c0-1,0.6-3.7,2-8.1L40,52.3h14.1
		c17.2,0,28.5-2.8,34.2-7.6c6.8-5.8,9-13,9-19.2c0-3.4-0.9-6.6-2.7-9.6C92.9,12.7,90.3,10.2,86.9,8.4z M80.4,39.9
		c-3.3,4.4-7.1,7.3-11.4,8.5c-4.3,1.2-9.9,1.8-16.6,1.8c-4,0-11.6-1-10.2-6.1L54,6.5h10.8c5,0,8.8,0.3,11.4,1
		c2.6,0.7,4.9,2.4,6.9,5.1c1.9,2.7,2.9,6.2,2.9,10.3C85.9,28.2,84.4,34.6,80.4,39.9z"/>
</g>
</svg>
