<?xml version="1.0" encoding="utf-8"?>
<!-- Generator: Adobe Illustrator 18.1.1, SVG Export Plug-In . SVG Version: 6.00 Build 0)  -->
<svg version="1.1" id="Layer_1" xmlns="http://www.w3.org/2000/svg" xmlns:xlink="http://www.w3.org/1999/xlink" x="0px" y="0px"
	 viewBox="33.6 99.8 960.5 344.4" enable-background="new 33.6 99.8 960.5 344.4" xml:space="preserve">
<g>
	<path fill="#FF6C00" d="M209.8,303.2c7.5-6.2,14-13.5,19.2-21.7c5.2-8.2,9.5-16.9,12.2-26.4c2.7-9.5,4.2-19.2,4.2-29.2
		c0-19.7-3.5-35.9-10.5-49.1c-7-13.2-16.4-23.7-28.4-31.7c-12-8-25.7-13.7-41.4-17.2s-32.1-5.2-49.3-5.2H33.6v313.8h74.3V326.8
		l80.2,109.7h62.3v-33.4l-65.8-85.2C194,314.4,202.3,309.4,209.8,303.2z M159.2,260c-7.5,9.5-18.4,14.2-32.6,14.2
		c-2.7,0-5.7-0.5-9.2-1.2c-3.5-0.7-6.5-1.5-9.2-2.2V185h19.4c14.7,0,25.4,3,32.4,9c7,6,10.5,16.4,10.5,31.4
		C170.4,239.1,166.6,250.6,159.2,260z"/>
	<rect x="277" y="202.2" fill="#FF6C00" width="68.3" height="234.3"/>
	<path fill="#FF6C00" d="M341.1,110.8c-3.7-3.2-8.2-6-13.2-8c-5-2-10.2-3-15.5-3c-5.5,0-10.7,1-16,3c-5.2,2-10,5-14.2,8.7
		s-7.5,8-9.7,13c-2.5,5-3.5,10.2-3.5,16c0,5.7,1.2,11,3.5,15.5c2.5,4.7,5.5,8.7,9.2,12s8.2,6,13.2,7.7c5,1.7,10.2,2.7,15.5,2.7
		c5.5,0,10.7-1,16-3s10-4.7,14-8.5c4-3.7,7.2-8,9.7-13s3.7-10.2,3.7-16s-1.2-11-3.5-15.5C348.1,118,344.8,114,341.1,110.8z"/>
	<path fill="#FF6C00" d="M470.9,165.6c4-4.7,8.5-8.2,13.2-10.7c5.7-3.2,12.2-5.5,19.7-6.7l-10.5-49.3c-18.2,1.2-34.4,4.7-48.8,10.5
		c-6,2.5-12,5.7-17.9,9.7c-6,4-11,9-15.5,14.7c-4.5,5.7-8.2,12.5-11,20.2c-2.7,7.7-4.2,16.4-4.2,26.4v21.9h-23.4v49.8l23.4,3.7
		v180.7h69.3V258.1h35.9v-55.8h-35.9V183C465,176.1,466.9,170.3,470.9,165.6z"/>
	<rect x="527.5" y="202.2" fill="#FF6C00" width="68.3" height="234.3"/>
	<path fill="#FF6C00" d="M591.6,110.8c-3.7-3.2-8.2-6-13.2-8s-10.2-3-15.5-3c-5.5,0-10.7,1-16,3c-5.2,2-10,5-14.2,8.7s-7.5,8-9.7,13
		c-2.5,5-3.5,10.2-3.5,16c0,5.7,1.2,11,3.5,15.5c2.5,4.7,5.5,8.7,9.2,12c3.7,3.2,8.2,6,13.2,7.7c5,1.7,10.2,2.7,15.5,2.7
		c5.5,0,10.7-1,16-3s10-4.7,14-8.5c4-3.7,7.2-8,9.7-13s3.7-10.2,3.7-16s-1.2-11-3.5-15.5C598.5,118,595.3,114,591.6,110.8z"/>
	<path fill="#FF6C00" d="M751.3,196.2c-3-0.7-6.2-1.2-9.7-1.2c-3.2,0-6.5,1.2-10,3.7c-3.5,2.5-7,5.5-10.5,8.7
		c-3.7,3.5-7.7,7.5-12,12v-17.2h-69.8v234.3h69V270c1.2-1,3-2,4.7-3.2c1.5-1,3.5-1.7,5.7-2.7c2.2-0.7,5-1.2,8.2-1.2
		c3.5,0,7,0.5,10.5,1.2c3.5,0.7,6.7,1.7,9.5,2.7l10,3.2l9-67.8c-2.2-1-4.7-2-7.2-3.2C757,198,754.3,197,751.3,196.2z"/>
	<path fill="#FF6C00" d="M986.6,400.6c-1.7-1.2-3-3-3.7-5s-1.2-4.5-1.5-7c-0.2-2.5-0.2-5-0.2-7.7V104.3h-69.5v97.9
		c-5.5-2-11.2-3.5-17.2-5s-11.7-2.2-17.2-2.2c-19.7,0-36.4,3.7-49.6,11c-13.2,7.2-23.9,16.9-31.9,29.2c-8,12.2-13.7,26.2-16.9,41.9
		c-3.2,15.7-5,32.4-5,49.6c0,14.5,2,28.4,6,42.6c4,14,10,26.7,18.2,37.9c8.2,11.2,18.2,20.2,30.2,26.9c12,7,25.9,10.2,41.9,10.2
		c5,0,10.5-0.7,15.7-2.5c5.5-1.5,10.5-4,15.5-7c5-3,9.2-6.5,13.2-10.5c3.7-4,6.7-8.5,8.7-13.2c3,11.2,8.2,19.4,15.7,24.9
		c7.7,5.5,16.2,8.2,25.4,8.2c2.5,0,5,0,7.7-0.2c2.5-0.2,5-0.2,7.7-0.2l14.5-41.1C990.8,402.6,988.3,401.9,986.6,400.6z M911.6,323.6
		c0,5.5-0.5,11.7-1.7,19.2c-1,7.2-3,14.2-5.5,20.4c-2.5,6.5-6.2,11.7-11,16.2c-4.7,4.5-10.7,6.7-17.7,6.7c-7.2,0-13-2.2-17.2-7
		c-4.2-4.7-7.2-10.2-9.2-16.9c-2-6.7-3.2-13.7-3.7-20.9c-0.5-7.2-0.7-13.7-0.7-19.2c0-6.5,0.2-13.7,0.5-21.7
		c0.2-8.2,1.5-15.7,3.5-22.9c2-7.2,5.5-13.2,10-18.2c4.7-5,11.5-7.5,20.4-7.5c5.5,0,11,0.5,16.7,1.7c5.7,1.2,11,2.7,15.7,5
		L911.6,323.6L911.6,323.6z"/>
</g>
</svg>
