<?xml version="1.0" encoding="utf-8"?>
<!-- Generator: Adobe Illustrator 18.1.1, SVG Export Plug-In . SVG Version: 6.00 Build 0)  -->
<svg version="1.1" id="Layer_1" xmlns="http://www.w3.org/2000/svg" xmlns:xlink="http://www.w3.org/1999/xlink" x="0px" y="0px"
	 viewBox="174 -228 600 600" enable-background="new 174 -228 600 600" xml:space="preserve">
<g>
	<path fill="none" stroke="#FFFFFF" stroke-width="2" stroke-linecap="round" stroke-linejoin="round" stroke-miterlimit="10" d="
		M391.8,120.7c1.6,1.6,4.1,1.6,5.7,0l23-23c1.6-1.6,1.6-4.1,0-5.7l-13-13c-1.6-1.6-2-4.4-1-6.4l7.1-16.6c0.7-2.1,3.1-3.8,5.3-3.8
		l21,0c2.2,0,4-1.8,4-4l0-32.5c0-2.2-1.8-4-4-4l-20,0c-2.2,0-4.5-1.7-5.2-3.8l-8.3-20.6c-1-2-0.5-4.8,1-6.4l13-13
		c1.6-1.6,1.6-4.1,0-5.7l-23-23c-1.6-1.6-4.1-1.6-5.7,0l-13,13c-1.6,1.6-4.4,2-6.4,1L355.8-54c-2.1-0.7-3.8-3.1-3.8-5.3l0-16.9
		c0-2.2-1.8-4-4-4l-32.6,0c-2.2,0-4,1.8-4,4l0,15.9c0,2.2-1.7,4.5-3.8,5.2L287-46.9c-2,1-4.8,0.5-6.4-1l-13-13
		c-1.6-1.6-4.1-1.6-5.7,0l-23,23c-1.6,1.6-1.6,4.1,0,5.7l13,13c1.6,1.6,2,4.4,1,6.4l-8.3,20.7c-0.6,2.1-2.9,3.8-5.1,3.8l-15.9,0
		c-2.2,0-4,1.8-4,4v32.6c0,2.2,1.8,4,4,4l16.8,0c2.2,0,4.6,1.7,5.3,3.8l7.1,16.6c1,2,0.6,4.8-1,6.4l-13,13c-1.6,1.6-1.6,4.1,0,5.7
		l23,23c1.6,1.6,4.1,1.6,5.7,0l13-13c1.6-1.6,4.4-2,6.4-1l20.6,8.3c2.1,0.6,3.8,3,3.8,5.2l0,20c0,2.2,1.8,4,4,4l32.5,0
		c2.2,0,4-1.8,4-4l0-21c0-2.2,1.7-4.6,3.8-5.3l16.6-7.1c2-1,4.8-0.6,6.4,1L391.8,120.7z M297.1,62.5c-18.1-18.1-18-47.2,0-65.2
		c18-18,47.1-18,65.2,0c18,18,18,47.2,0,65.2C344.2,80.5,315.1,80.5,297.1,62.5z"/>
</g>
<g>
	<path fill="none" stroke="#FFFFFF" stroke-width="2" stroke-linecap="round" stroke-linejoin="round" stroke-miterlimit="10" d="
		M463.4,260.1c2,0.9,4.4,0.1,5.3-1.9l8.4-17.5c0.9-2,0.1-4.4-1.9-5.3l-8.9-4.3c-2-0.9-3.4-3.5-3.1-5.7l0.6-9.6
		c0-2.2,1.7-4.6,3.7-5.3l11-3.9c2.1-0.7,3.2-3,2.4-5.1l-6.5-18.3c-0.7-2.1-3-3.2-5.1-2.4l-10.3,3.6c-2.1,0.7-4.8-0.1-6.1-1.9
		l-8.2-9.4c-1.6-1.5-2.1-4.4-1.2-6.4l4.3-8.9c1-2,0.1-4.4-1.9-5.3l-17.6-8.4c-2-0.9-4.4-0.1-5.3,1.9l-4.3,8.9
		c-0.9,2-3.5,3.4-5.7,3.1l-9.6-0.6c-2.2,0-4.6-1.7-5.3-3.7l-2.9-8.3c-0.7-2.1-3-3.2-5.1-2.4l-18.3,6.5c-2.1,0.7-3.2,3-2.4,5.1
		l2.7,7.7c0.7,2.1-0.1,4.8-1.9,6.1l-9.4,8.2c-1.5,1.6-4.4,2.1-6.4,1.2l-8.9-4.3c-2-0.9-4.4-0.1-5.3,1.9l-8.4,17.5
		c-0.9,2-0.1,4.4,1.9,5.3l8.9,4.3c2,0.9,3.4,3.5,3.1,5.7l-0.5,12.5c0.1,2.2-1.5,4.6-3.6,5.3l-7.7,2.7c-2.1,0.7-3.2,3-2.4,5.1
		l6.5,18.3c0.7,2.1,3,3.2,5.1,2.4l8.3-2.9c2.1-0.7,4.9,0.1,6.2,1.8l6.6,7.1c1.6,1.5,2.1,4.4,1.2,6.4l-4.3,8.9c-1,2-0.1,4.4,1.9,5.3
		l17.6,8.4c2,0.9,4.4,0.1,5.3-1.9l4.3-8.9c1-2,3.5-3.4,5.7-3.1l12.5,0.5c2.2-0.1,4.6,1.5,5.3,3.6l3.7,10.3c0.7,2.1,3,3.2,5.1,2.4
		l18.3-6.5c2.1-0.7,3.2-3,2.4-5.1l-3.9-11c-0.7-2.1,0.1-4.9,1.8-6.2l7.1-6.6c1.5-1.6,4.4-2.1,6.3-1.2L463.4,260.1z M391,244.8
		c-15.6-7.5-22.1-26.1-14.7-41.6c7.4-15.6,26-22.1,41.6-14.7c15.5,7.4,22.1,26,14.7,41.6C425.2,245.7,406.6,252.3,391,244.8z"/>
</g>
<g>
	<path fill="none" stroke="#FFFFFF" stroke-width="2" stroke-linecap="round" stroke-linejoin="round" stroke-miterlimit="10" d="
		M676.8,93.4c1.6,1.6,4.1,1.6,5.7,0L713.9,62c1.6-1.6,1.6-4.1,0-5.7l-18.5-18.5c-1.6-1.6-2-4.4-1-6.4l10.1-23.6
		c0.7-2.1,3.1-3.8,5.3-3.8l29.5,0c2.2,0,4-1.8,4-4l0-44.5c0-2.2-1.8-4-4-4l-28.3,0c-2.2,0-4.5-1.7-5.2-3.8l-11.6-28.9
		c-1-2-0.5-4.8,1-6.4l18.5-18.5c1.6-1.6,1.6-4.1,0-5.7l-31.5-31.5c-1.6-1.6-4.1-1.6-5.7,0l-18.5,18.5c-1.6,1.6-4.4,2-6.4,1
		l-23.7-10.2c-2.1-0.7-3.8-3.1-3.8-5.3l0-24.2c0-2.2-1.8-4-4-4l-44.5,0c-2.2,0-4,1.8-4,4l0,22.9c0,2.2-1.7,4.5-3.8,5.2l-28.9,11.6
		c-2,1-4.8,0.5-6.4-1l-18.5-18.5c-1.6-1.6-4.1-1.6-5.7,0l-31.5,31.5c-1.6,1.6-1.6,4.1,0,5.7l18.5,18.5c1.6,1.6,2,4.4,1,6.4
		l-11.6,28.9c-0.6,2.1-2.9,3.8-5.1,3.8l-22.9,0c-2.2,0-4,1.8-4,4V0c0,2.2,1.8,4,4,4l24.2,0c2.2,0,4.6,1.7,5.3,3.8l10.2,23.7
		c1,2,0.6,4.8-1,6.4l-18.5,18.5c-1.6,1.6-1.6,4.1,0,5.7l31.5,31.5c1.6,1.6,4.1,1.6,5.7,0L532.8,75c1.6-1.6,4.4-2,6.4-1l28.9,11.6
		c2.1,0.6,3.8,3,3.8,5.2l0,28.3c0,2.2,1.8,4,4,4l44.5,0c2.2,0,4-1.8,4-4l0-29.5c0-2.2,1.7-4.6,3.8-5.3l23.6-10.2c2-1,4.8-0.6,6.4,1
		L676.8,93.4z M553.4,17.3c-23.4-23.4-23.3-61.1,0-84.4c23.3-23.3,61-23.3,84.4,0c23.3,23.3,23.3,61,0,84.4
		C614.4,40.6,576.6,40.6,553.4,17.3z"/>
</g>
</svg>
