<?xml version="1.0" encoding="utf-8"?>
<!-- Generator: Adobe Illustrator 18.1.1, SVG Export Plug-In . SVG Version: 6.00 Build 0)  -->
<svg version="1.1" id="Layer_1" xmlns="http://www.w3.org/2000/svg" xmlns:xlink="http://www.w3.org/1999/xlink" x="0px" y="0px"
	 viewBox="174 -228 600 600" enable-background="new 174 -228 600 600" xml:space="preserve">
<path fill="none" stroke="#FFFFFF" stroke-width="2" stroke-linecap="round" stroke-linejoin="round" stroke-miterlimit="10" d="
	M732.7,87.4c0-15.1-19.8-34.1-42.1-43.6c-8.2,9.3-18.1,15.7-25.9,15.7c-1.2,0-2.4-0.2-3.6-0.4c-2.5,8.9-7.9,17.8-14.3,25
	c19.1,8.1,36.3,23.1,40.9,36.8C711.9,115.9,732.7,103.4,732.7,87.4z"/>
<path fill="none" stroke="#FFFFFF" stroke-width="2" stroke-linecap="round" stroke-linejoin="round" stroke-miterlimit="10" d="
	M662.6,48.9c0,3.4-0.6,6.8-1.5,10.3c1.2,0.3,2.4,0.4,3.6,0.4c7.8,0,17.7-6.5,25.9-15.7c8.9-10,15.8-23.3,15.8-35.3
	c0-23-13.1-41.7-41.7-41.7c-28,0-41.2,17.9-41.7,40.4C650.1,8.1,662.6,26.4,662.6,48.9z"/>
<path fill="none" stroke="#FFFFFF" stroke-width="2" stroke-linecap="round" stroke-linejoin="round" stroke-miterlimit="10" d="
	M687.7,120.9c-4.6-13.6-21.8-28.7-40.9-36.8c-8.2,9.3-18.1,15.7-25.9,15.7c-7.2,0-16.3-5.6-24.2-13.8c-0.7-0.8-1.5-1.6-2.2-2.4
	c-11.6,4.5-22.5,11.6-30.3,19.8c26.2,17.2,47.2,39.4,55.1,60.2c0.5,0,1,0,1.5,0c32.5,0,68-15.1,68-35.9
	C688.9,125.5,688.5,123.3,687.7,120.9z"/>
<path fill="none" stroke="#FFFFFF" stroke-width="2" stroke-linecap="round" stroke-linejoin="round" stroke-miterlimit="10" d="
	M623,7.2c-0.7,0-1.4,0-2.1,0c-28.6,0-41.7,18.7-41.7,41.7c0,11.8,6.7,24.8,15.4,34.8c0.7,0.8,1.5,1.6,2.2,2.4
	c7.8,8.2,16.9,13.8,24.2,13.8c7.8,0,17.7-6.5,25.9-15.7c6.4-7.2,11.8-16.1,14.3-25c1-3.5,1.5-6.9,1.5-10.3
	C662.6,26.4,650.1,8.1,623,7.2z"/>
<path fill="none" stroke="#FFFFFF" stroke-width="2" stroke-linecap="round" stroke-linejoin="round" stroke-miterlimit="10" d="
	M302.4,84.2c-6.4-7.2-11.8-16.1-14.3-25c-1.2,0.3-2.4,0.4-3.6,0.4c-7.8,0-17.7-6.5-25.9-15.7c-22.3,9.5-42.1,28.5-42.1,43.6
	c0,15.9,20.7,28.5,45,33.5C266.1,107.3,283.3,92.3,302.4,84.2z"/>
<path fill="none" stroke="#FFFFFF" stroke-width="2" stroke-linecap="round" stroke-linejoin="round" stroke-miterlimit="10" d="
	M284.5,59.6c1.2,0,2.4-0.2,3.6-0.4c-1-3.5-1.5-6.9-1.5-10.3c0-22.5,12.5-40.8,39.6-41.7c-0.5-22.4-13.7-40.4-41.7-40.4
	c-28.6,0-41.7,18.7-41.7,41.7c0,12,6.9,25.2,15.8,35.3C266.8,53.1,276.7,59.6,284.5,59.6z"/>
<path fill="none" stroke="#FFFFFF" stroke-width="2" stroke-linecap="round" stroke-linejoin="round" stroke-miterlimit="10" d="
	M354.7,83.7c-0.7,0.8-1.5,1.6-2.2,2.4c-7.8,8.2-16.9,13.8-24.2,13.8c-7.8,0-17.7-6.5-25.9-15.7c-19.1,8.1-36.3,23.1-40.9,36.8
	c-0.8,2.3-1.2,4.6-1.2,6.8c0,20.9,35.5,35.9,68,35.9c0.3,0,0.5,0,0.8,0c7.1-23.2,27.9-45.3,54.1-61.9
	C375.6,94.3,365.5,87.9,354.7,83.7z"/>
<path fill="none" stroke="#FFFFFF" stroke-width="2" stroke-linecap="round" stroke-linejoin="round" stroke-miterlimit="10" d="
	M328.3,7.2c-0.7,0-1.4,0-2.1,0c-27.1,0.9-39.6,19.2-39.6,41.7c0,3.4,0.6,6.8,1.5,10.3c2.5,8.9,7.9,17.8,14.3,25
	c8.2,9.3,18.1,15.7,25.9,15.7c7.2,0,16.3-5.6,24.2-13.8c0.7-0.8,1.5-1.6,2.2-2.4c8.7-10,15.4-23,15.4-34.8
	C370,25.9,356.9,7.2,328.3,7.2z"/>
<path fill="none" stroke="#FFFFFF" stroke-width="2" stroke-linecap="round" stroke-linejoin="round" stroke-miterlimit="10" d="
	M619.4,163.6c-7.9-20.8-28.9-43-55.1-60.2c-10.4-6.8-21.6-12.9-33.2-17.8c-17.9,20.2-39.5,34.3-56.5,34.3
	c-17.3,0-39.4-14.6-57.4-35.3c-11.8,4.6-23.3,10.4-33.9,17.1c-26.3,16.6-47.1,38.7-54.1,61.9c-1.7,5.6-2.6,11.3-2.6,16.9
	c0,53.9,77.4,78.3,148.1,78.3s148.2-32.8,148.2-78.3C622.8,175.1,621.6,169.4,619.4,163.6z"/>
<path fill="none" stroke="#FFFFFF" stroke-width="2" stroke-linecap="round" stroke-linejoin="round" stroke-miterlimit="10" d="
	M474.6,120c17,0,38.6-14.1,56.5-34.3c19.4-21.8,34.4-50.7,34.4-76.8c0-50.2-28.6-90.9-90.9-90.9s-90.9,40.7-90.9,90.9
	c0,25.7,14.5,54.1,33.5,75.8C435.2,105.4,457.3,120,474.6,120z"/>
</svg>
