<?xml version="1.0" encoding="utf-8"?>
<!-- Generator: Adobe Illustrator 18.1.1, SVG Export Plug-In . SVG Version: 6.00 Build 0)  -->
<svg version="1.1" id="Layer_1" xmlns="http://www.w3.org/2000/svg" xmlns:xlink="http://www.w3.org/1999/xlink" x="0px" y="0px"
	 viewBox="174 -228 600 600" enable-background="new 174 -228 600 600" xml:space="preserve">
<path fill="none" stroke="#FFFFFF" stroke-width="2" stroke-linecap="round" stroke-linejoin="round" stroke-miterlimit="10" d="
	M476.6-46.2c-8.3,7.9-10.7,19.5-3,27.7c7.9,8.4,15.3,4.3,15.3,4.3s-7.3,9.9,0.7,18.4c7.4,7.9,16.3,5.4,16.3,5.4s-8.1,9.2,3.2,20.2
	c10,9.9,17.1,4.6,17.1,4.6s-7.5,10.5,5,21.3c11.1,9.5,24.4-0.2,24.4-0.2L577.5,36c0,0,9.4,7.7,20,4.1c22.5-7.7,51.9-43,51.6-62.5
	c-0.1-10.7,1.2-24.9,3.6-35.3c2.6-11.5,15.4-28.9,27.2-43c-18.7-22.4-41-41.6-65.9-56.9c-18,16.5-41.2,35.5-58.6,41.8
	C523.4-104.3,484.5-53.8,476.6-46.2z"/>
<path fill="none" stroke="#FFFFFF" stroke-width="2" stroke-linecap="round" stroke-linejoin="round" stroke-miterlimit="10" d="
	M349.2,61.4c7.9,8.3,19.5,10.7,27.7,3c8.4-7.9,4.3-15.3,4.3-15.3s9.9,7.3,18.4-0.7c7.9-7.4,5.4-16.3,5.4-16.3s9.2,8.1,20.2-3.2
	c9.9-10,4.6-17.1,4.6-17.1s10.5,7.5,21.3-5c9.5-11.1-0.2-24.4-0.2-24.4l-19.4-21.9c0,0,7.7-9.4,4.1-20c-7.7-22.5-43-51.9-62.5-51.6
	c-10.7,0.1-24.9-1.2-35.3-3.6c-9.6-2.2-23.2-11.4-35.6-21.1c-22.9,18.9-42.5,41.5-58.2,66.8c14.8,16.7,30,36.4,35.5,51.6
	C291.1,14.6,341.7,53.5,349.2,61.4z"/>
<path fill="none" stroke="#FFFFFF" stroke-width="2" stroke-linecap="round" stroke-linejoin="round" stroke-miterlimit="10" d="
	M584.2,81.2c-7.9-8.3-19.5-10.7-27.7-3c-8.4,7.9-4.3,15.3-4.3,15.3s-9.9-7.3-18.4,0.7c-7.9,7.4-5.4,16.3-5.4,16.3s-9.2-8.1-20.2,3.2
	c-9.9,10-4.6,17.1-4.6,17.1s-10.5-7.5-21.3,5c-9.5,11.1,0.2,24.4,0.2,24.4l19.4,21.9c0,0-7.7,9.4-4.1,20c7.7,22.5,43,51.9,62.5,51.6
	c10.7-0.1,24.9,1.2,35.3,3.6c11.5,2.6,28.8,15.3,42.9,27c22.9-17.9,42.9-39.4,59.1-63.7c-16.9-18.2-37.2-42.6-43.7-60.7
	C642.3,128,591.7,89,584.2,81.2z"/>
<path fill="none" stroke="#FFFFFF" stroke-width="2" stroke-linecap="round" stroke-linejoin="round" stroke-miterlimit="10" d="
	M456.8,188.8c8.3-7.9,10.7-19.5,3-27.7c-7.9-8.4-15.3-4.3-15.3-4.3s7.3-9.9-0.7-18.4c-7.4-7.9-16.3-5.4-16.3-5.4s8.1-9.2-3.2-20.2
	c-10-9.9-17.1-4.6-17.1-4.6s7.5-10.5-5-21.3c-11.1-9.5-24.4,0.2-24.4,0.2l-21.9,19.4c0,0-9.4-7.7-20-4.1
	c-22.5,7.7-51.9,43-51.6,62.5c0.1,10.7-1.2,24.9-3.6,35.3c-2.2,9.5-11.3,23-20.9,35.3c18,23.5,39.8,43.9,64.5,60.3
	c17.2-15.3,37.9-31.7,53.8-37.5C410,246.9,448.9,196.3,456.8,188.8z"/>
<line fill="none" stroke="#FFFFFF" stroke-width="2" stroke-linecap="round" stroke-linejoin="round" stroke-miterlimit="10" x1="426" y1="70" x2="509" y2="70"/>
<line fill="none" stroke="#FFFFFF" stroke-width="2" stroke-linecap="round" stroke-linejoin="round" stroke-miterlimit="10" x1="468" y1="112" x2="468" y2="29"/>
<line fill="none" stroke="#FFFFFF" stroke-width="2" stroke-linecap="round" stroke-linejoin="round" stroke-miterlimit="10" x1="489" y1="91.2" x2="446.8" y2="49"/>
<line fill="none" stroke="#FFFFFF" stroke-width="2" stroke-linecap="round" stroke-linejoin="round" stroke-miterlimit="10" x1="489" y1="49" x2="446.8" y2="91.2"/>
</svg>
